<svg xmlns="http://www.w3.org/2000/svg" viewBox="0 0 183.23 37.69"><defs><style>.cls-1{fill:#fcce0d;}.cls-2{fill:#fff;}</style></defs><title>Banking-logo</title><g id="Layer_2" data-name="Layer 2"><g id="Layer_1-2" data-name="Layer 1"><path class="cls-1" d="M41.93,33.55v.34l-.06.24a1,1,0,0,1-.83.7H.86A1.08,1.08,0,0,1,0,34.1v-.34a1.13,1.13,0,0,1,1.19-.7c1.49,0,3,0,4.49,0H6V8.9a4,4,0,0,1,0-.6A4.08,4.08,0,0,1,9,4.91l.65-.13c0-.44,0-.87.07-1.31a3.89,3.89,0,0,1,3-3.34C13,.07,13.2,0,13.44,0H32.05l.19,0a3.36,3.36,0,0,1,1.44.44A4,4,0,0,1,35.81,4.2V33.07H41A.87.87,0,0,1,41.93,33.55Zm-7.72-.49V4.18a2.21,2.21,0,0,0-2.29-2.27h-18A2.21,2.21,0,0,0,11.6,4.2V33.06Zm-24.37,0V6.56a2.17,2.17,0,0,0-2,2.2V32.89s0,.11,0,.18h2Z"/><path class="cls-1" d="M21.14,21.72c0,.76.05,1.52,0,2.28a2.41,2.41,0,0,1-2.49,2.26,14.76,14.76,0,0,1-1.49,0A2.5,2.5,0,0,1,15,24.12a4,4,0,0,1,0-.59c0-1.21,0-2.41,0-3.62a2.42,2.42,0,0,1,1.4-2.25,1.94,1.94,0,0,1,.78-.22,13.87,13.87,0,0,1,2,0,2.34,2.34,0,0,1,2,2.36v1.89Zm-1.57,0h0V19.88a.66.66,0,0,0-.71-.72q-.66,0-1.32,0a.67.67,0,0,0-.72.73v3.6a.67.67,0,0,0,.73.73c.41,0,.81,0,1.22,0s.8-.24.8-.79Z"/><path class="cls-1" d="M21.14,9.68c0,.76.05,1.53,0,2.28a2.38,2.38,0,0,1-2.36,2.26c-.49,0-1,0-1.49,0A2.54,2.54,0,0,1,15,12.07a3.9,3.9,0,0,1,0-.59c0-1.2,0-2.4,0-3.6a2.42,2.42,0,0,1,1.19-2.14,2.25,2.25,0,0,1,.92-.32,11.65,11.65,0,0,1,2.13,0,2.34,2.34,0,0,1,2,2.44c0,.6,0,1.2,0,1.8Zm-1.57.13h0V8a.67.67,0,0,0-.73-.72H17.58a.69.69,0,0,0-.76.78v3.53a.68.68,0,0,0,.75.76h1.2c.55,0,.8-.25.8-.8Z"/><path class="cls-1" d="M30.43,9.84c0,.66,0,1.33,0,2A2.42,2.42,0,0,1,28,14.22c-.47,0-.95,0-1.42,0a2.52,2.52,0,0,1-2.37-2.42c0-1.34,0-2.69,0-4A2.41,2.41,0,0,1,26.7,5.39a12.14,12.14,0,0,1,1.6,0,2.5,2.5,0,0,1,2.12,2.3c0,.71,0,1.41,0,2.12Zm-1.72,0V8.05a.7.7,0,0,0-.77-.78H26.7A.67.67,0,0,0,26,8c0,1.21,0,2.41,0,3.62a.66.66,0,0,0,.73.73h1.22a.71.71,0,0,0,.8-.81Z"/><path class="cls-1" d="M30.43,21.88c0,.66,0,1.32,0,2a2.45,2.45,0,0,1-2.53,2.41,13.84,13.84,0,0,1-1.44,0,2.54,2.54,0,0,1-2.24-2.42c0-1.34,0-2.68,0-4a2.42,2.42,0,0,1,2.49-2.38,13,13,0,0,1,1.53,0,2.51,2.51,0,0,1,2.17,2.33c0,.7,0,1.41,0,2.11Zm-1.72-.16c0-.61,0-1.22,0-1.82a.67.67,0,0,0-.73-.74c-.43,0-.85,0-1.28,0a.65.65,0,0,0-.73.71c0,1.21,0,2.43,0,3.64a.66.66,0,0,0,.75.71c.39,0,.79,0,1.19,0a.7.7,0,0,0,.81-.79Z"/><path class="cls-2" d="M63.21,30.42V5.69h9.28A11.51,11.51,0,0,1,77,6.44a5.81,5.81,0,0,1,2.68,2.31,6.07,6.07,0,0,1,1,3.27,5.54,5.54,0,0,1-.86,3,6.05,6.05,0,0,1-2.6,2.26,6.43,6.43,0,0,1,3.45,2.25,6,6,0,0,1,1.21,3.74,7.19,7.19,0,0,1-.73,3.23,6.26,6.26,0,0,1-1.82,2.31A7.65,7.65,0,0,1,76.64,30a16.85,16.85,0,0,1-4,.41Zm3.28-14.34h5.35A12.06,12.06,0,0,0,75,15.8a3.46,3.46,0,0,0,1.88-1.24,3.54,3.54,0,0,0,.63-2.16,4,4,0,0,0-.59-2.16A3,3,0,0,0,75.19,9a14.14,14.14,0,0,0-3.76-.34H66.49Zm0,11.42h6.15a15.75,15.75,0,0,0,2.23-.11,5.25,5.25,0,0,0,1.89-.68A3.55,3.55,0,0,0,78,25.34a4.3,4.3,0,0,0,.49-2.09,4.12,4.12,0,0,0-.71-2.4,3.77,3.77,0,0,0-2-1.44A12.31,12.31,0,0,0,72.21,19H66.49Z"/><path class="cls-2" d="M97.7,28.21a11.47,11.47,0,0,1-3.25,2,9.48,9.48,0,0,1-3.35.59,6.53,6.53,0,0,1-4.54-1.44A4.81,4.81,0,0,1,85,25.7a4.92,4.92,0,0,1,.6-2.41,5,5,0,0,1,1.57-1.74,7.37,7.37,0,0,1,2.18-1A22.44,22.44,0,0,1,92,20.1a27,27,0,0,0,5.41-1.05c0-.41,0-.68,0-.79a3.38,3.38,0,0,0-.86-2.62,5.12,5.12,0,0,0-3.46-1,5.27,5.27,0,0,0-3.16.76A4.59,4.59,0,0,0,88.47,18l-3-.4a7.34,7.34,0,0,1,1.33-3.08,6,6,0,0,1,2.69-1.81,11.94,11.94,0,0,1,4.06-.63,10.78,10.78,0,0,1,3.73.54A4.86,4.86,0,0,1,99.42,14a4.71,4.71,0,0,1,.94,2.07,17.23,17.23,0,0,1,.15,2.8v4a42.38,42.38,0,0,0,.2,5.36,6.53,6.53,0,0,0,.77,2.15H98.3A6.51,6.51,0,0,1,97.7,28.21Zm-.26-6.78a22.42,22.42,0,0,1-5,1.15,11.1,11.1,0,0,0-2.64.61,2.57,2.57,0,0,0-1.62,2.42,2.58,2.58,0,0,0,.92,2,4,4,0,0,0,2.69.81A6.27,6.27,0,0,0,95,27.68a4.73,4.73,0,0,0,2-2.1,7.49,7.49,0,0,0,.48-3Z"/><path class="cls-2" d="M105.22,30.42V12.51H108v2.54a6.47,6.47,0,0,1,5.71-3,7.56,7.56,0,0,1,3,.58,4.7,4.7,0,0,1,2,1.53,5.88,5.88,0,0,1,.94,2.24,17.76,17.76,0,0,1,.17,3v11h-3V19.52a8.09,8.09,0,0,0-.35-2.77,3,3,0,0,0-1.26-1.47,4,4,0,0,0-2.11-.55A4.92,4.92,0,0,0,109.67,16c-.94.83-1.41,2.38-1.41,4.68v9.78Z"/><path class="cls-2" d="M124.45,30.42V5.69h3v14.1l7.19-7.28h3.93l-6.85,6.64,7.54,11.27h-3.75l-5.92-9.16-2.14,2.06v7.1Z"/><path class="cls-2" d="M141.73,9.18V5.69h3V9.18Zm0,21.24V12.51h3V30.42Z"/><path class="cls-2" d="M149.39,30.42V12.51h2.73v2.54a6.46,6.46,0,0,1,5.7-3,7.61,7.61,0,0,1,3,.58,4.67,4.67,0,0,1,2,1.53,5.89,5.89,0,0,1,.95,2.24,17.76,17.76,0,0,1,.17,3v11h-3V19.52a8.34,8.34,0,0,0-.35-2.77,3,3,0,0,0-1.26-1.47,4.05,4.05,0,0,0-2.12-.55A4.93,4.93,0,0,0,153.83,16c-.94.83-1.4,2.38-1.4,4.68v9.78Z"/><path class="cls-2" d="M168.05,31.91l2.95.44a2.82,2.82,0,0,0,1,2,5.06,5.06,0,0,0,3.09.84,5.42,5.42,0,0,0,3.25-.84A4.14,4.14,0,0,0,179.92,32a19.13,19.13,0,0,0,.22-3.89,6.24,6.24,0,0,1-5,2.34,6.78,6.78,0,0,1-5.72-2.66,10.27,10.27,0,0,1-2-6.4,11.88,11.88,0,0,1,.93-4.73,7.45,7.45,0,0,1,2.69-3.35,7.22,7.22,0,0,1,4.14-1.18,6.43,6.43,0,0,1,5.23,2.57V12.51h2.8V28a14.64,14.64,0,0,1-.85,5.93,6.2,6.2,0,0,1-2.7,2.76,9.31,9.31,0,0,1-4.55,1A8.61,8.61,0,0,1,170,36.25,4.87,4.87,0,0,1,168.05,31.91Zm2.51-10.77q0,3.52,1.4,5.15a4.44,4.44,0,0,0,3.51,1.62A4.52,4.52,0,0,0,179,26.3c.94-1.08,1.42-2.76,1.42-5.06a7.38,7.38,0,0,0-1.46-5,4.54,4.54,0,0,0-3.52-1.67A4.37,4.37,0,0,0,172,16.26,7.27,7.27,0,0,0,170.56,21.14Z"/></g></g></svg>