<svg xmlns="http://www.w3.org/2000/svg" viewBox="0 0 187.18 14.8"><defs><style>.cls-1{fill:#fcce0d;}.cls-2{fill:#828282;}</style></defs><title>chat-window-logo-banking</title><g id="Layer_2" data-name="Layer 2"><g id="Layer_1-2" data-name="Layer 1"><path class="cls-1" d="M17.77,14.21v.15l0,.1a.46.46,0,0,1-.36.3H.36A.46.46,0,0,1,0,14.45V14.3A.46.46,0,0,1,.5,14h2V3.77a2,2,0,0,1,0-.25,1.73,1.73,0,0,1,1.3-1.44L4.11,2c0-.19,0-.38,0-.56A1.66,1.66,0,0,1,5.39.05l.3,0h7.89l.08,0a1.35,1.35,0,0,1,.61.18,1.72,1.72,0,0,1,.9,1.58V14h2.22A.38.38,0,0,1,17.77,14.21ZM14.49,14V1.77a.93.93,0,0,0-1-1H5.88a.94.94,0,0,0-1,1V14ZM4.17,14V2.78a.92.92,0,0,0-.85.93V14h.85Z"/><path class="cls-1" d="M9,9.2c0,.32,0,.65,0,1a1,1,0,0,1-1,1,4.56,4.56,0,0,1-.64,0A1.12,1.12,0,0,1,6.33,10c0-.51,0-1,0-1.53a1,1,0,0,1,.59-1,.78.78,0,0,1,.33-.09,6.32,6.32,0,0,1,.87,0A1,1,0,0,1,9,8.4v.8Zm-.67,0h0V8.42a.27.27,0,0,0-.3-.3H7.43a.28.28,0,0,0-.3.31c0,.5,0,1,0,1.52a.28.28,0,0,0,.31.31H8c.23,0,.34-.1.34-.34Z"/><path class="cls-1" d="M9,4.1c0,.32,0,.65,0,1A1,1,0,0,1,8,6q-.32,0-.63,0a1.05,1.05,0,0,1-1-.91,1,1,0,0,1,0-.25c0-.51,0-1,0-1.52a1,1,0,0,1,.5-.91.82.82,0,0,1,.39-.13,4.5,4.5,0,0,1,.9,0,1,1,0,0,1,.85,1V4.1Zm-.67.06h0V3.39A.28.28,0,0,0,8,3.08H7.45a.29.29,0,0,0-.32.33c0,.5,0,1,0,1.49a.29.29,0,0,0,.31.33H8a.3.3,0,0,0,.34-.34Z"/><path class="cls-1" d="M12.89,4.17c0,.28,0,.56,0,.84a1,1,0,0,1-1,1h-.6a1.07,1.07,0,0,1-1-1q0-.86,0-1.71a1,1,0,0,1,1.05-1,5.12,5.12,0,0,1,.68,0,1.07,1.07,0,0,1,.9,1c0,.3,0,.6,0,.9Zm-.73,0V3.41a.29.29,0,0,0-.32-.33h-.53a.28.28,0,0,0-.31.31q0,.76,0,1.53a.28.28,0,0,0,.31.31h.51c.23,0,.34-.11.34-.34Z"/><path class="cls-1" d="M12.89,9.27c0,.28,0,.56,0,.83a1,1,0,0,1-1.07,1c-.2,0-.41,0-.61,0a1.08,1.08,0,0,1-1-1c0-.57,0-1.13,0-1.7a1,1,0,0,1,1.06-1,4.68,4.68,0,0,1,.65,0,1.06,1.06,0,0,1,.92,1c0,.3,0,.6,0,.9Zm-.73-.07V8.43a.28.28,0,0,0-.31-.31h-.54a.27.27,0,0,0-.31.3c0,.51,0,1,0,1.54a.27.27,0,0,0,.31.3h.51a.3.3,0,0,0,.34-.34Z"/><path d="M28.77,2.85h3.7a10.76,10.76,0,0,1,1.63.09,2.39,2.39,0,0,1,1,.38,2.33,2.33,0,0,1,.71.78,2.08,2.08,0,0,1,.29,1.08,2.18,2.18,0,0,1-.35,1.19,2.2,2.2,0,0,1-1,.81,2.43,2.43,0,0,1,1.3.84,2.23,2.23,0,0,1,.45,1.39,2.77,2.77,0,0,1-.29,1.22,2.41,2.41,0,0,1-.8.95,2.59,2.59,0,0,1-1.25.44c-.31,0-1.06.06-2.25.07H28.77Zm1.87,1.54V6.52h1.22c.73,0,1.18,0,1.36,0A1.27,1.27,0,0,0,34,6.16a1,1,0,0,0,.27-.72,1.05,1.05,0,0,0-.23-.7,1.15,1.15,0,0,0-.71-.32q-.27,0-1.59,0Zm0,3.67v2.47h1.73a7.85,7.85,0,0,0,1.27-.06,1.12,1.12,0,0,0,.68-.37,1.08,1.08,0,0,0,.26-.78,1.26,1.26,0,0,0-.2-.71,1.16,1.16,0,0,0-.58-.42,6.37,6.37,0,0,0-1.66-.13Z"/><path d="M39.39,7.44l-1.6-.29a2.5,2.5,0,0,1,.93-1.44,3.43,3.43,0,0,1,2-.46,4.21,4.21,0,0,1,1.76.28,1.64,1.64,0,0,1,.81.71,3.55,3.55,0,0,1,.24,1.58l0,2.07a6.84,6.84,0,0,0,.09,1.3,3.71,3.71,0,0,0,.31.9H42.13c0-.12-.1-.3-.17-.53l-.06-.21a3.08,3.08,0,0,1-1,.67,2.88,2.88,0,0,1-1.1.22,2.3,2.3,0,0,1-1.63-.56,1.86,1.86,0,0,1-.59-1.42,1.88,1.88,0,0,1,.27-1,1.7,1.7,0,0,1,.75-.68A6,6,0,0,1,40,8.15a9.62,9.62,0,0,0,1.72-.43V7.54a.89.89,0,0,0-.25-.72,1.47,1.47,0,0,0-.95-.22,1.23,1.23,0,0,0-.74.19A1.32,1.32,0,0,0,39.39,7.44Zm2.37,1.43a8.42,8.42,0,0,1-1.07.27,3.36,3.36,0,0,0-1,.31.74.74,0,0,0-.34.63.89.89,0,0,0,.27.64,1,1,0,0,0,.71.27,1.53,1.53,0,0,0,.91-.32,1,1,0,0,0,.42-.58,3.29,3.29,0,0,0,.07-.86Z"/><path d="M51.33,12.09H49.56V8.67a5.58,5.58,0,0,0-.11-1.4,1,1,0,0,0-.37-.49,1.05,1.05,0,0,0-.62-.18,1.39,1.39,0,0,0-.82.25,1.29,1.29,0,0,0-.5.67A5.76,5.76,0,0,0,47,9.06v3H45.23V5.4h1.65v1a2.74,2.74,0,0,1,3.27-.92,1.93,1.93,0,0,1,.74.53,2,2,0,0,1,.34.75,5.14,5.14,0,0,1,.1,1.19Z"/><path d="M53.06,12.09V2.85h1.77v4.9L56.9,5.4h2.18L56.8,7.84l2.45,4.25H57.34l-1.68-3-.83.86v2.15Z"/><path d="M60.3,4.49V2.85h1.77V4.49Zm0,7.6V5.4h1.77v6.69Z"/><path d="M70,12.09H68.2V8.67a5,5,0,0,0-.12-1.4.91.91,0,0,0-.36-.49,1.05,1.05,0,0,0-.62-.18,1.39,1.39,0,0,0-.82.25,1.24,1.24,0,0,0-.5.67,5.76,5.76,0,0,0-.14,1.54v3H63.87V5.4h1.64v1a2.76,2.76,0,0,1,3.28-.92,1.82,1.82,0,0,1,.73.53,2,2,0,0,1,.35.75A5.77,5.77,0,0,1,70,7.93Z"/><path d="M71.6,12.53l2,.24a.69.69,0,0,0,.23.49,1.41,1.41,0,0,0,.8.19,2,2,0,0,0,1-.21.86.86,0,0,0,.35-.45,2.89,2.89,0,0,0,.08-.81V11a2.41,2.41,0,0,1-2,1.09A2.48,2.48,0,0,1,72,11a3.92,3.92,0,0,1-.61-2.25,3.69,3.69,0,0,1,.81-2.57,2.61,2.61,0,0,1,2-.88,2.44,2.44,0,0,1,2,1.08V5.4h1.66v6a6,6,0,0,1-.19,1.77,2.24,2.24,0,0,1-.55.92,2.56,2.56,0,0,1-.94.52,4.86,4.86,0,0,1-1.49.19,3.87,3.87,0,0,1-2.42-.58,1.84,1.84,0,0,1-.71-1.48A1.62,1.62,0,0,1,71.6,12.53ZM73.18,8.6a2.45,2.45,0,0,0,.41,1.56,1.3,1.3,0,0,0,1,.5,1.42,1.42,0,0,0,1.1-.51,2.26,2.26,0,0,0,.44-1.5,2.33,2.33,0,0,0-.43-1.55,1.36,1.36,0,0,0-1.08-.5,1.32,1.32,0,0,0-1,.49A2.37,2.37,0,0,0,73.18,8.6Z"/><path d="M83.41,14.8V2.69h1.4V14.8Z"/><path class="cls-2" d="M90.49,12.09V2.85h3.18A8.22,8.22,0,0,1,95.31,3a3.39,3.39,0,0,1,1.36.66,3.87,3.87,0,0,1,1.09,1.58,6.23,6.23,0,0,1,.36,2.2,6.56,6.56,0,0,1-.24,1.86,5,5,0,0,1-.63,1.35,3.71,3.71,0,0,1-.84.84,3.74,3.74,0,0,1-1.11.46,6.51,6.51,0,0,1-1.48.16ZM91.71,11h2a4.84,4.84,0,0,0,1.43-.17,2.14,2.14,0,0,0,.83-.48,2.9,2.9,0,0,0,.68-1.17,5.76,5.76,0,0,0,.24-1.78,4.38,4.38,0,0,0-.47-2.23,2.43,2.43,0,0,0-1.16-1,4.65,4.65,0,0,0-1.58-.19H91.71Z"/><path class="cls-2" d="M99.67,4.16V2.85h1.13V4.16Zm0,7.93V5.4h1.13v6.69Z"/><path class="cls-2" d="M102.32,12.64l1.1.16a1.09,1.09,0,0,0,.38.75,1.9,1.9,0,0,0,1.16.31,2,2,0,0,0,1.21-.31,1.54,1.54,0,0,0,.58-.89,6.71,6.71,0,0,0,.08-1.45,2.33,2.33,0,0,1-1.85.88,2.52,2.52,0,0,1-2.13-1,3.8,3.8,0,0,1-.76-2.39,4.42,4.42,0,0,1,.35-1.76,2.73,2.73,0,0,1,1-1.25A2.66,2.66,0,0,1,105,5.25a2.38,2.38,0,0,1,2,1V5.4h1v5.78a5.48,5.48,0,0,1-.32,2.21,2.28,2.28,0,0,1-1,1,3.53,3.53,0,0,1-1.7.38,3.18,3.18,0,0,1-1.93-.54A1.82,1.82,0,0,1,102.32,12.64Zm.94-4a2.88,2.88,0,0,0,.52,1.92,1.64,1.64,0,0,0,1.31.61,1.67,1.67,0,0,0,1.31-.6,2.84,2.84,0,0,0,.53-1.89,2.69,2.69,0,0,0-.55-1.85,1.67,1.67,0,0,0-1.31-.63,1.65,1.65,0,0,0-1.29.62A2.73,2.73,0,0,0,103.26,8.62Z"/><path class="cls-2" d="M109.71,4.16V2.85h1.13V4.16Zm0,7.93V5.4h1.13v6.69Z"/><path class="cls-2" d="M115,11.07l.16,1a4,4,0,0,1-.85.1,2,2,0,0,1-1-.19,1.07,1.07,0,0,1-.48-.51,4.16,4.16,0,0,1-.14-1.34V6.28h-.83V5.4h.83V3.74l1.13-.68V5.4H115v.88H113.9v3.91a2,2,0,0,0,.06.62.41.41,0,0,0,.19.22.73.73,0,0,0,.39.09A3.79,3.79,0,0,0,115,11.07Z"/><path class="cls-2" d="M120.51,11.26a4.21,4.21,0,0,1-1.21.76,3.65,3.65,0,0,1-1.25.22,2.42,2.42,0,0,1-1.69-.54,1.77,1.77,0,0,1-.6-1.38,1.83,1.83,0,0,1,.23-.9,1.92,1.92,0,0,1,.58-.65,2.78,2.78,0,0,1,.82-.37,8.91,8.91,0,0,1,1-.17,10.55,10.55,0,0,0,2-.39v-.3a1.22,1.22,0,0,0-.32-1,1.88,1.88,0,0,0-1.29-.39,2.07,2.07,0,0,0-1.18.28,1.74,1.74,0,0,0-.56,1L116,7.3a2.72,2.72,0,0,1,.5-1.14,2.12,2.12,0,0,1,1-.68A4.38,4.38,0,0,1,119,5.25a3.89,3.89,0,0,1,1.39.2,1.89,1.89,0,0,1,.79.5,2,2,0,0,1,.35.77,6.5,6.5,0,0,1,0,1V9.28a15.08,15.08,0,0,0,.08,2,2.69,2.69,0,0,0,.28.81h-1.18A2.52,2.52,0,0,1,120.51,11.26Zm-.09-2.53a8.32,8.32,0,0,1-1.85.43,4.12,4.12,0,0,0-1,.22,1,1,0,0,0-.45.37,1,1,0,0,0-.16.54,1,1,0,0,0,.35.76,1.48,1.48,0,0,0,1,.3,2.36,2.36,0,0,0,1.17-.29,1.76,1.76,0,0,0,.75-.78,2.82,2.82,0,0,0,.18-1.14Z"/><path class="cls-2" d="M123.3,12.09V2.85h1.13v9.24Z"/><path class="cls-2" d="M136.51,8.85l1.22.31a4.09,4.09,0,0,1-1.39,2.29,3.76,3.76,0,0,1-2.44.79,4.32,4.32,0,0,1-2.42-.61,3.76,3.76,0,0,1-1.43-1.76,6.33,6.33,0,0,1-.49-2.47,5.44,5.44,0,0,1,.56-2.52,3.78,3.78,0,0,1,1.56-1.63,4.62,4.62,0,0,1,2.24-.56,3.78,3.78,0,0,1,2.33.71,3.68,3.68,0,0,1,1.32,2l-1.2.29a2.91,2.91,0,0,0-.94-1.47,2.44,2.44,0,0,0-1.53-.46,3,3,0,0,0-1.78.51,2.74,2.74,0,0,0-1,1.37,5.56,5.56,0,0,0-.29,1.77,5.62,5.62,0,0,0,.35,2.06,2.51,2.51,0,0,0,1.07,1.31,3,3,0,0,0,1.56.44,2.59,2.59,0,0,0,1.74-.6A3,3,0,0,0,136.51,8.85Z"/><path class="cls-2" d="M138.67,8.74a3.43,3.43,0,0,1,1-2.75,3.06,3.06,0,0,1,2.1-.74,3,3,0,0,1,2.26.9,3.44,3.44,0,0,1,.87,2.5,4.56,4.56,0,0,1-.38,2,2.84,2.84,0,0,1-1.13,1.15,3.33,3.33,0,0,1-1.62.41,3,3,0,0,1-2.27-.9A3.6,3.6,0,0,1,138.67,8.74Zm1.16,0a2.89,2.89,0,0,0,.56,1.93,1.81,1.81,0,0,0,1.41.63,1.79,1.79,0,0,0,1.41-.64,2.94,2.94,0,0,0,.56-2,2.76,2.76,0,0,0-.57-1.88,1.8,1.8,0,0,0-1.4-.64,1.82,1.82,0,0,0-1.41.64A2.84,2.84,0,0,0,139.83,8.74Z"/><path class="cls-2" d="M146.26,12.09V5.4h1v.95a2.39,2.39,0,0,1,2.13-1.1,2.89,2.89,0,0,1,1.11.21,1.83,1.83,0,0,1,.76.57,2.11,2.11,0,0,1,.35.84A5.58,5.58,0,0,1,151.7,8v4.12h-1.14V8a3,3,0,0,0-.13-1,1.09,1.09,0,0,0-.47-.55,1.54,1.54,0,0,0-.79-.2,1.82,1.82,0,0,0-1.25.46,2.26,2.26,0,0,0-.52,1.74v3.66Z"/><path class="cls-2" d="M157.8,9.63l1.12.15a2.92,2.92,0,0,1-.94,1.8,2.71,2.71,0,0,1-1.85.66,2.89,2.89,0,0,1-2.21-.9,3.68,3.68,0,0,1-.83-2.57,4.63,4.63,0,0,1,.36-1.9,2.5,2.5,0,0,1,1.09-1.22,3.25,3.25,0,0,1,1.6-.4,2.76,2.76,0,0,1,1.78.55,2.49,2.49,0,0,1,.89,1.56l-1.1.17a1.8,1.8,0,0,0-.56-1,1.44,1.44,0,0,0-1-.34,1.76,1.76,0,0,0-1.39.61,2.9,2.9,0,0,0-.54,1.94,3,3,0,0,0,.52,2,1.68,1.68,0,0,0,1.35.61,1.54,1.54,0,0,0,1.11-.41A2,2,0,0,0,157.8,9.63Z"/><path class="cls-2" d="M159.89,4.16V2.85H161V4.16Zm0,7.93V5.4H161v6.69Z"/><path class="cls-2" d="M167.33,9.93l1.17.15a2.84,2.84,0,0,1-1,1.59,3.47,3.47,0,0,1-4.25-.34,3.54,3.54,0,0,1-.86-2.53,3.68,3.68,0,0,1,.87-2.62,3,3,0,0,1,2.26-.93,2.86,2.86,0,0,1,2.19.91,3.61,3.61,0,0,1,.85,2.57c0,.07,0,.17,0,.3h-5a2.59,2.59,0,0,0,.62,1.69,1.85,1.85,0,0,0,1.4.58,1.78,1.78,0,0,0,1.06-.32A2.14,2.14,0,0,0,167.33,9.93ZM163.61,8.1h3.73a2.32,2.32,0,0,0-.42-1.27,1.88,1.88,0,0,0-2.72-.13A2.05,2.05,0,0,0,163.61,8.1Z"/><path class="cls-2" d="M169.91,12.09V5.4h1v1a2.81,2.81,0,0,1,.72-.94,1.3,1.3,0,0,1,.73-.22,2.27,2.27,0,0,1,1.17.36l-.39,1a1.67,1.67,0,0,0-.83-.24,1.06,1.06,0,0,0-.67.22,1.19,1.19,0,0,0-.42.62,4.25,4.25,0,0,0-.19,1.32v3.51Z"/><path class="cls-2" d="M174,12.64l1.11.16a1,1,0,0,0,.38.75,1.87,1.87,0,0,0,1.15.31,2,2,0,0,0,1.22-.31,1.59,1.59,0,0,0,.58-.89,7.46,7.46,0,0,0,.08-1.45,2.35,2.35,0,0,1-1.85.88,2.55,2.55,0,0,1-2.14-1,3.85,3.85,0,0,1-.75-2.39,4.42,4.42,0,0,1,.34-1.76,2.74,2.74,0,0,1,1-1.25,2.65,2.65,0,0,1,1.54-.44,2.41,2.41,0,0,1,2,1V5.4h1v5.78a5.31,5.31,0,0,1-.32,2.21,2.26,2.26,0,0,1-1,1,3.53,3.53,0,0,1-1.7.38,3.23,3.23,0,0,1-1.94-.54A1.84,1.84,0,0,1,174,12.64Zm.94-4a2.94,2.94,0,0,0,.52,1.92,1.65,1.65,0,0,0,1.31.61,1.67,1.67,0,0,0,1.31-.6,2.79,2.79,0,0,0,.53-1.89,2.74,2.74,0,0,0-.54-1.85,1.68,1.68,0,0,0-1.32-.63,1.63,1.63,0,0,0-1.28.62A2.73,2.73,0,0,0,175,8.62Z"/><path class="cls-2" d="M186,9.93l1.18.15a2.9,2.9,0,0,1-1,1.59,3.46,3.46,0,0,1-4.24-.34A3.5,3.5,0,0,1,181,8.8a3.68,3.68,0,0,1,.87-2.62,2.94,2.94,0,0,1,2.25-.93,2.83,2.83,0,0,1,2.19.91,3.61,3.61,0,0,1,.85,2.57V9h-5a2.59,2.59,0,0,0,.62,1.69,1.86,1.86,0,0,0,1.4.58,1.81,1.81,0,0,0,1.07-.32A2.19,2.19,0,0,0,186,9.93ZM182.25,8.1H186a2.32,2.32,0,0,0-.43-1.27,1.76,1.76,0,0,0-1.41-.65,1.79,1.79,0,0,0-1.31.52A2.1,2.1,0,0,0,182.25,8.1Z"/></g></g></svg>