<svg xmlns="http://www.w3.org/2000/svg" xmlns:xlink="http://www.w3.org/1999/xlink" viewBox="0 0 382.3 165.69"><defs><style>.cls-1{fill:url(#linear-gradient);}.cls-2{fill:url(#linear-gradient-2);}.cls-3{fill:#fff;}.cls-4{fill:#085aff;}</style><linearGradient id="linear-gradient" y1="14.82" x2="199.94" y2="14.82" gradientUnits="userSpaceOnUse"><stop offset="0" stop-color="#f9ca87"/><stop offset="1" stop-color="#f06e7c"/></linearGradient><linearGradient id="linear-gradient-2" y1="48.89" x2="129.66" y2="48.89" xlink:href="#linear-gradient"/></defs><title>content-left-banking</title><g id="Layer_2" data-name="Layer 2"><g id="Layer_1-2" data-name="Layer 1"><rect class="cls-1" width="199.94" height="29.64"/><rect class="cls-2" y="34.07" width="129.66" height="29.64"/><path class="cls-3" d="M8.22,22.77,3.12,3.54H5.73L8.66,16.15q.46,2,.81,3.93c.49-2,.78-3.24.87-3.55L14,3.54h3.07l2.76,9.73a51.1,51.1,0,0,1,1.49,6.81c.25-1.22.56-2.61,1-4.18l3-12.36h2.56L22.57,22.77H20.12L16.07,8.12c-.35-1.22-.55-2-.61-2.25-.2.88-.39,1.63-.56,2.25L10.82,22.77Z"/><path class="cls-3" d="M39,18.28l2.44.31a5.91,5.91,0,0,1-2.14,3.31,6.4,6.4,0,0,1-4,1.18,6.35,6.35,0,0,1-4.85-1.88,7.36,7.36,0,0,1-1.79-5.28,7.66,7.66,0,0,1,1.81-5.45,6.11,6.11,0,0,1,4.7-1.94,5.94,5.94,0,0,1,4.56,1.9,7.56,7.56,0,0,1,1.77,5.35c0,.14,0,.35,0,.63H31.08a5.34,5.34,0,0,0,1.3,3.51,3.84,3.84,0,0,0,2.91,1.22,3.59,3.59,0,0,0,2.22-.68A4.52,4.52,0,0,0,39,18.28Zm-7.75-3.81H39a4.79,4.79,0,0,0-.89-2.64,3.63,3.63,0,0,0-2.93-1.36,3.73,3.73,0,0,0-2.73,1.09A4.29,4.29,0,0,0,31.21,14.47Z"/><path class="cls-3" d="M60.91,21.05a8.62,8.62,0,0,1-2.52,1.57,7.24,7.24,0,0,1-2.61.46A5,5,0,0,1,52.26,22,3.71,3.71,0,0,1,51,19.1a3.91,3.91,0,0,1,1.69-3.23,5.61,5.61,0,0,1,1.7-.77,18.16,18.16,0,0,1,2.1-.36,20.94,20.94,0,0,0,4.21-.81c0-.32,0-.53,0-.62a2.58,2.58,0,0,0-.67-2,4,4,0,0,0-2.69-.8,4.16,4.16,0,0,0-2.46.59,3.49,3.49,0,0,0-1.17,2.06l-2.31-.31a5.77,5.77,0,0,1,1-2.4A4.59,4.59,0,0,1,54.55,9a9.24,9.24,0,0,1,3.16-.49,8.35,8.35,0,0,1,2.9.42A3.88,3.88,0,0,1,62.25,10,3.74,3.74,0,0,1,63,11.61a13.09,13.09,0,0,1,.12,2.18v3.14a33.75,33.75,0,0,0,.15,4.17,5.16,5.16,0,0,0,.6,1.67H61.38A5.1,5.1,0,0,1,60.91,21.05Zm-.19-5.27a17.2,17.2,0,0,1-3.86.89,9.21,9.21,0,0,0-2.06.47,2.09,2.09,0,0,0-.93.77,2.07,2.07,0,0,0,.39,2.69,3.05,3.05,0,0,0,2.09.63,4.9,4.9,0,0,0,2.42-.59A3.74,3.74,0,0,0,60.34,19a5.84,5.84,0,0,0,.38-2.37Z"/><path class="cls-3" d="M66.73,22.77V8.84h2.13V11A5.73,5.73,0,0,1,70.36,9a2.57,2.57,0,0,1,1.51-.47,4.57,4.57,0,0,1,2.43.76l-.81,2.19A3.41,3.41,0,0,0,71.76,11a2.23,2.23,0,0,0-1.39.46,2.5,2.5,0,0,0-.88,1.29,9.29,9.29,0,0,0-.4,2.76v7.29Z"/><path class="cls-3" d="M85.24,18.28l2.44.31a6,6,0,0,1-2.14,3.31,6.41,6.41,0,0,1-4,1.18,6.33,6.33,0,0,1-4.84-1.88,7.31,7.31,0,0,1-1.79-5.28,7.66,7.66,0,0,1,1.81-5.45,6.09,6.09,0,0,1,4.69-1.94A5.94,5.94,0,0,1,86,10.43a7.56,7.56,0,0,1,1.77,5.35c0,.14,0,.35,0,.63H77.36a5.33,5.33,0,0,0,1.29,3.51,3.85,3.85,0,0,0,2.92,1.22,3.57,3.57,0,0,0,2.21-.68A4.53,4.53,0,0,0,85.24,18.28Zm-7.75-3.81h7.77a4.71,4.71,0,0,0-.89-2.64,3.61,3.61,0,0,0-2.92-1.36,3.74,3.74,0,0,0-2.74,1.09A4.28,4.28,0,0,0,77.49,14.47Z"/><path class="cls-3" d="M98.1,22.77V3.54h2.36v6.9a5.28,5.28,0,0,1,4.17-1.91,5.59,5.59,0,0,1,2.69.61A3.58,3.58,0,0,1,109,10.82a7.75,7.75,0,0,1,.49,3.12v8.83h-2.36V13.94a3.62,3.62,0,0,0-.76-2.57,2.87,2.87,0,0,0-2.17-.81,3.88,3.88,0,0,0-2,.54,3.2,3.2,0,0,0-1.32,1.48,6.84,6.84,0,0,0-.39,2.57v7.62Z"/><path class="cls-3" d="M122.12,21.05a8.62,8.62,0,0,1-2.52,1.57,7.22,7.22,0,0,1-2.6.46A5.05,5.05,0,0,1,113.47,22a3.7,3.7,0,0,1-1.23-2.86,3.87,3.87,0,0,1,1.68-3.23,5.61,5.61,0,0,1,1.7-.77,18.16,18.16,0,0,1,2.1-.36,20.79,20.79,0,0,0,4.21-.81c0-.32,0-.53,0-.62a2.58,2.58,0,0,0-.67-2,4,4,0,0,0-2.69-.8,4.16,4.16,0,0,0-2.46.59A3.54,3.54,0,0,0,115,13.13l-2.31-.31a5.77,5.77,0,0,1,1-2.4A4.59,4.59,0,0,1,115.76,9a9.28,9.28,0,0,1,3.16-.49,8.35,8.35,0,0,1,2.9.42A3.88,3.88,0,0,1,123.46,10a3.75,3.75,0,0,1,.74,1.61,14.73,14.73,0,0,1,.11,2.18v3.14a33.75,33.75,0,0,0,.15,4.17,5.16,5.16,0,0,0,.6,1.67H122.6A4.88,4.88,0,0,1,122.12,21.05Zm-.19-5.27a17.2,17.2,0,0,1-3.86.89,9.21,9.21,0,0,0-2.06.47,2.09,2.09,0,0,0-.93.77,2.07,2.07,0,0,0,.39,2.69,3.07,3.07,0,0,0,2.09.63,5,5,0,0,0,2.43-.59A3.77,3.77,0,0,0,121.55,19a5.84,5.84,0,0,0,.38-2.37Z"/><path class="cls-3" d="M128,28.1V8.84h2.15v1.81a5.24,5.24,0,0,1,1.72-1.59,4.65,4.65,0,0,1,2.32-.53,5.45,5.45,0,0,1,3.15.92A5.66,5.66,0,0,1,139.37,12a9.56,9.56,0,0,1,.69,3.67,9.16,9.16,0,0,1-.77,3.85,5.79,5.79,0,0,1-2.22,2.62,5.72,5.72,0,0,1-3.08.91,4.48,4.48,0,0,1-2.12-.49,5.06,5.06,0,0,1-1.54-1.26V28.1Zm2.14-12.22a6,6,0,0,0,1.09,4,3.34,3.34,0,0,0,2.63,1.28,3.42,3.42,0,0,0,2.7-1.33,6.3,6.3,0,0,0,1.12-4.12,6.15,6.15,0,0,0-1.1-4,3.29,3.29,0,0,0-2.61-1.32,3.39,3.39,0,0,0-2.67,1.41A6.31,6.31,0,0,0,130.11,15.88Z"/><path class="cls-3" d="M142.91,28.1V8.84h2.15v1.81a5.15,5.15,0,0,1,1.72-1.59,4.63,4.63,0,0,1,2.32-.53,5.42,5.42,0,0,1,3.14.92A5.6,5.6,0,0,1,154.3,12a9.38,9.38,0,0,1,.7,3.67,9.32,9.32,0,0,1-.77,3.85A5.75,5.75,0,0,1,152,22.17a5.69,5.69,0,0,1-3.07.91,4.45,4.45,0,0,1-2.12-.49,4.94,4.94,0,0,1-1.54-1.26V28.1ZM145,15.88a6.1,6.1,0,0,0,1.09,4,3.37,3.37,0,0,0,5.33-.05,6.3,6.3,0,0,0,1.12-4.12,6.15,6.15,0,0,0-1.09-4,3.3,3.3,0,0,0-2.62-1.32,3.39,3.39,0,0,0-2.66,1.41A6.25,6.25,0,0,0,145,15.88Z"/><path class="cls-3" d="M157.74,28.13l-.26-2.21a5.13,5.13,0,0,0,1.35.2,2.57,2.57,0,0,0,1.26-.26,2.15,2.15,0,0,0,.77-.73,11.29,11.29,0,0,0,.72-1.76c0-.13.11-.32.21-.58L156.51,8.84h2.54l2.9,8.07c.37,1,.71,2.1,1,3.22a30.6,30.6,0,0,1,1-3.17l3-8.12h2.36L164,23a27.92,27.92,0,0,1-1.33,3.16,4.81,4.81,0,0,1-1.44,1.71,3.42,3.42,0,0,1-1.94.54A4.77,4.77,0,0,1,157.74,28.13Z"/><path class="cls-3" d="M183.89,20.66l.34,2.08a8.81,8.81,0,0,1-1.79.21,4.05,4.05,0,0,1-2-.4,2.33,2.33,0,0,1-1-1.07,8.55,8.55,0,0,1-.29-2.79v-8h-1.73V8.84h1.73V5.39L181.51,4V8.84h2.38v1.84h-2.38v8.14a3.83,3.83,0,0,0,.13,1.3,1,1,0,0,0,.4.46,1.63,1.63,0,0,0,.81.17A7.93,7.93,0,0,0,183.89,20.66Z"/><path class="cls-3" d="M185.31,15.81q0-3.87,2.15-5.73a6.45,6.45,0,0,1,4.38-1.55,6.27,6.27,0,0,1,4.7,1.88,7.18,7.18,0,0,1,1.82,5.2,9.34,9.34,0,0,1-.8,4.23,5.76,5.76,0,0,1-2.35,2.39,6.83,6.83,0,0,1-3.37.85,6.24,6.24,0,0,1-4.72-1.87A7.5,7.5,0,0,1,185.31,15.81Zm2.43,0a5.91,5.91,0,0,0,1.17,4,3.88,3.88,0,0,0,5.86,0,6,6,0,0,0,1.17-4.07,5.79,5.79,0,0,0-1.18-3.92,3.88,3.88,0,0,0-5.85,0A5.88,5.88,0,0,0,187.74,15.81Z"/><path class="cls-3" d="M4.57,55V35.77H6.93v6.9a5.25,5.25,0,0,1,4.17-1.91,5.67,5.67,0,0,1,2.68.6,3.62,3.62,0,0,1,1.64,1.69,7.93,7.93,0,0,1,.49,3.12V55H13.55V46.17a3.67,3.67,0,0,0-.77-2.58,2.87,2.87,0,0,0-2.17-.8,3.82,3.82,0,0,0-2,.54,3,3,0,0,0-1.32,1.48,6.8,6.8,0,0,0-.39,2.57V55Z"/><path class="cls-3" d="M29,50.51l2.44.3a5.92,5.92,0,0,1-2.13,3.32,6.41,6.41,0,0,1-4,1.18,6.4,6.4,0,0,1-4.85-1.88,7.39,7.39,0,0,1-1.79-5.28,7.75,7.75,0,0,1,1.81-5.46,6.15,6.15,0,0,1,4.7-1.93,5.94,5.94,0,0,1,4.56,1.9A7.54,7.54,0,0,1,31.55,48c0,.14,0,.34,0,.63H21.15a5.34,5.34,0,0,0,1.3,3.51,3.88,3.88,0,0,0,2.91,1.22,3.64,3.64,0,0,0,2.22-.68A4.5,4.5,0,0,0,29,50.51Zm-7.75-3.82h7.78a4.65,4.65,0,0,0-.89-2.63,3.63,3.63,0,0,0-2.93-1.37,3.77,3.77,0,0,0-2.73,1.09A4.33,4.33,0,0,0,21.28,46.69Z"/><path class="cls-3" d="M34.38,55V35.77h2.36V55Z"/><path class="cls-3" d="M40.4,60.33V41.07h2.15v1.81a5.39,5.39,0,0,1,1.72-1.6,4.76,4.76,0,0,1,2.32-.52,5.52,5.52,0,0,1,3.15.91,5.62,5.62,0,0,1,2.06,2.59,9.56,9.56,0,0,1,.69,3.67,9.38,9.38,0,0,1-.76,3.85A5.81,5.81,0,0,1,49.5,54.4a5.72,5.72,0,0,1-3.08.91,4.51,4.51,0,0,1-2.12-.5,4.9,4.9,0,0,1-1.54-1.26v6.78Zm2.14-12.22a6,6,0,0,0,1.09,4,3.32,3.32,0,0,0,2.63,1.29A3.45,3.45,0,0,0,49,52a6.31,6.31,0,0,0,1.12-4.13,6.14,6.14,0,0,0-1.09-4,3.3,3.3,0,0,0-2.62-1.33A3.39,3.39,0,0,0,43.7,44,6.34,6.34,0,0,0,42.54,48.11Z"/><path class="cls-3" d="M62.7,60.36l-.27-2.22a5.31,5.31,0,0,0,1.35.21A2.63,2.63,0,0,0,65,58.09a2,2,0,0,0,.78-.74,12.12,12.12,0,0,0,.72-1.75c0-.13.11-.33.21-.58l-5.29-14H64l2.89,8.06a33,33,0,0,1,1,3.23c.28-1.09.6-2.14,1-3.17l3-8.12h2.36l-5.3,14.16a27.57,27.57,0,0,1-1.32,3.16,4.64,4.64,0,0,1-1.44,1.71,3.43,3.43,0,0,1-1.94.55A4.72,4.72,0,0,1,62.7,60.36Z"/><path class="cls-3" d="M75.35,48q0-3.87,2.15-5.73a6.49,6.49,0,0,1,4.38-1.54,6.22,6.22,0,0,1,4.69,1.88,7.12,7.12,0,0,1,1.83,5.2,9.12,9.12,0,0,1-.81,4.22,5.72,5.72,0,0,1-2.35,2.4,6.9,6.9,0,0,1-3.36.85,6.27,6.27,0,0,1-4.73-1.88A7.49,7.49,0,0,1,75.35,48Zm2.43,0a5.93,5.93,0,0,0,1.16,4,3.77,3.77,0,0,0,2.94,1.33A3.71,3.71,0,0,0,84.8,52,6.06,6.06,0,0,0,86,48,5.76,5.76,0,0,0,84.8,44a3.9,3.9,0,0,0-5.86,0A5.91,5.91,0,0,0,77.78,48Z"/><path class="cls-3" d="M100.29,55V53a5.1,5.1,0,0,1-4.42,2.36,5.7,5.7,0,0,1-2.3-.47A3.87,3.87,0,0,1,92,53.65a4.55,4.55,0,0,1-.72-1.75,11.51,11.51,0,0,1-.15-2.2V41.07h2.36v7.72a13.26,13.26,0,0,0,.15,2.49,2.43,2.43,0,0,0,.94,1.47,3,3,0,0,0,1.78.53,3.94,3.94,0,0,0,2-.55,2.94,2.94,0,0,0,1.31-1.48,7.35,7.35,0,0,0,.39-2.72V41.07h2.36V55Z"/><path class="cls-3" d="M106.77,55V52.31h2.69V55Z"/><path class="cls-3" d="M114.23,55V52.31h2.69V55Z"/><path class="cls-3" d="M121.69,55V52.31h2.69V55Z"/><path class="cls-3" d="M21.65,107.45l3,.77a10.2,10.2,0,0,1-3.43,5.7,9.49,9.49,0,0,1-6.07,2,11,11,0,0,1-6-1.51A9.39,9.39,0,0,1,5.61,110a15.59,15.59,0,0,1-1.22-6.15,13.59,13.59,0,0,1,1.37-6.26,9.42,9.42,0,0,1,3.9-4,11.34,11.34,0,0,1,5.57-1.39A9.42,9.42,0,0,1,21,93.91a9,9,0,0,1,3.27,4.93l-3,.7A7.13,7.13,0,0,0,19,95.89a6.22,6.22,0,0,0-3.83-1.14A7.4,7.4,0,0,0,10.74,96a6.71,6.71,0,0,0-2.5,3.4,13.77,13.77,0,0,0-.72,4.41,14,14,0,0,0,.86,5.11A6.35,6.35,0,0,0,11,112.21a7.45,7.45,0,0,0,3.9,1.08,6.54,6.54,0,0,0,4.32-1.47A7.55,7.55,0,0,0,21.65,107.45Z"/><path class="cls-3" d="M28.07,115.5v-23h2.82v8.24a6.29,6.29,0,0,1,5-2.29,6.73,6.73,0,0,1,3.21.73,4.3,4.3,0,0,1,2,2,9.32,9.32,0,0,1,.59,3.73V115.5H38.79V105a4.36,4.36,0,0,0-.91-3.08,3.43,3.43,0,0,0-2.6-1,4.58,4.58,0,0,0-2.35.65,3.69,3.69,0,0,0-1.58,1.76,8.16,8.16,0,0,0-.46,3.07v9.1Z"/><path class="cls-3" d="M56.75,113.45a10.78,10.78,0,0,1-3,1.88,8.84,8.84,0,0,1-3.11.54,6,6,0,0,1-4.21-1.34A4.41,4.41,0,0,1,45,111.11a4.55,4.55,0,0,1,.55-2.23A4.66,4.66,0,0,1,47,107.26a6.77,6.77,0,0,1,2-.92,18.77,18.77,0,0,1,2.51-.42,26,26,0,0,0,5-1c0-.38,0-.63,0-.73a3.09,3.09,0,0,0-.8-2.43,4.7,4.7,0,0,0-3.21-1,5,5,0,0,0-2.93.69,4.28,4.28,0,0,0-1.4,2.47l-2.76-.38a6.68,6.68,0,0,1,1.24-2.85,5.34,5.34,0,0,1,2.49-1.68,11.09,11.09,0,0,1,3.77-.59,10.09,10.09,0,0,1,3.46.5,4.6,4.6,0,0,1,2,1.27,4.38,4.38,0,0,1,.87,1.91,15,15,0,0,1,.15,2.6v3.76a39.83,39.83,0,0,0,.18,5,6.23,6.23,0,0,0,.71,2H57.31A6,6,0,0,1,56.75,113.45Zm-.23-6.3a21,21,0,0,1-4.61,1.07,10.27,10.27,0,0,0-2.46.56,2.41,2.41,0,0,0-1.11.92A2.38,2.38,0,0,0,48,111a2.41,2.41,0,0,0,.85,1.88,3.65,3.65,0,0,0,2.5.76,5.78,5.78,0,0,0,2.9-.72,4.38,4.38,0,0,0,1.86-2,6.8,6.8,0,0,0,.46-2.82Z"/><path class="cls-3" d="M69.89,113l.4,2.49a10.92,10.92,0,0,1-2.13.25,4.88,4.88,0,0,1-2.38-.49A2.65,2.65,0,0,1,64.6,114a10,10,0,0,1-.35-3.32v-9.57H62.18V98.87h2.07V94.75l2.8-1.69v5.81h2.84v2.19H67.05v9.72a4.85,4.85,0,0,0,.15,1.55,1.14,1.14,0,0,0,.49.55,1.8,1.8,0,0,0,1,.21A9.78,9.78,0,0,0,69.89,113Z"/><path class="cls-3" d="M84.62,115.5,79.53,98.87h2.91l2.65,9.6,1,3.57c0-.18.33-1.32.86-3.43l2.64-9.74h2.9L95,108.51l.83,3.18,1-3.21,2.84-9.61h2.75l-5.2,16.63H94.22l-2.65-10-.64-2.84-3.37,12.8Z"/><path class="cls-3" d="M104.72,95.78V92.54h2.82v3.24Zm0,19.72V98.87h2.82V115.5Z"/><path class="cls-3" d="M118,113l.4,2.49a10.92,10.92,0,0,1-2.13.25,4.88,4.88,0,0,1-2.38-.49,2.72,2.72,0,0,1-1.19-1.28,10,10,0,0,1-.34-3.32v-9.57h-2.07V98.87h2.07V94.75l2.8-1.69v5.81H118v2.19h-2.84v9.72a4.85,4.85,0,0,0,.15,1.55,1.14,1.14,0,0,0,.49.55,1.8,1.8,0,0,0,1,.21A9.94,9.94,0,0,0,118,113Z"/><path class="cls-3" d="M120.74,115.5v-23h2.82v8.24a6.31,6.31,0,0,1,5-2.29,6.79,6.79,0,0,1,3.21.73,4.3,4.3,0,0,1,1.95,2,9.32,9.32,0,0,1,.59,3.73V115.5h-2.82V105a4.36,4.36,0,0,0-.92-3.08,3.4,3.4,0,0,0-2.59-1,4.61,4.61,0,0,0-2.36.65,3.66,3.66,0,0,0-1.57,1.76,8.14,8.14,0,0,0-.47,3.07v9.1Z"/><path class="cls-3" d="M146.44,107.18q0-4.62,2.56-6.84a7.76,7.76,0,0,1,5.23-1.85,7.46,7.46,0,0,1,5.61,2.25A8.56,8.56,0,0,1,162,107a11,11,0,0,1-1,5,6.75,6.75,0,0,1-2.8,2.85,8.17,8.17,0,0,1-4,1,7.44,7.44,0,0,1-5.64-2.24C147.15,112.14,146.44,110,146.44,107.18Zm2.89,0a7.1,7.1,0,0,0,1.4,4.79,4.63,4.63,0,0,0,7,0,7.26,7.26,0,0,0,1.4-4.87,6.86,6.86,0,0,0-1.4-4.67,4.47,4.47,0,0,0-3.49-1.59,4.43,4.43,0,0,0-3.5,1.58A7,7,0,0,0,149.33,107.18Z"/><path class="cls-3" d="M176.22,115.5v-2.45a6.1,6.1,0,0,1-5.28,2.82,6.83,6.83,0,0,1-2.75-.56,4.53,4.53,0,0,1-1.89-1.42,5.08,5.08,0,0,1-.87-2.09,13.88,13.88,0,0,1-.17-2.63V98.87h2.81v9.22a15.88,15.88,0,0,0,.18,3,2.9,2.9,0,0,0,1.12,1.74,3.54,3.54,0,0,0,2.13.64,4.66,4.66,0,0,0,2.38-.65,3.7,3.7,0,0,0,1.58-1.77,9.08,9.08,0,0,0,.46-3.25V98.87h2.82V115.5Z"/><path class="cls-3" d="M183.12,115.5V98.87h2.54v2.52a6.69,6.69,0,0,1,1.79-2.33,3.11,3.11,0,0,1,1.81-.57,5.58,5.58,0,0,1,2.9.91l-1,2.62a4,4,0,0,0-2.06-.61,2.67,2.67,0,0,0-1.66.55,3,3,0,0,0-1.05,1.54,11.13,11.13,0,0,0-.47,3.29v8.71Z"/><path class="cls-3" d="M4.74,137.21h8.8a24.61,24.61,0,0,1,3.89.22,5.58,5.58,0,0,1,4,2.74,5,5,0,0,1,.67,2.58A5.19,5.19,0,0,1,19,147.52a5.79,5.79,0,0,1,3.09,2,5.32,5.32,0,0,1,1.09,3.32,6.63,6.63,0,0,1-.7,2.92A5.87,5.87,0,0,1,20.57,158a6.27,6.27,0,0,1-3,1c-.74.08-2.53.13-5.36.15H4.74Zm4.44,3.66V146H12.1c1.73,0,2.8,0,3.22-.07a3,3,0,0,0,1.8-.79,2.35,2.35,0,0,0,.65-1.72,2.45,2.45,0,0,0-.56-1.66,2.6,2.6,0,0,0-1.68-.77c-.44,0-1.7-.08-3.79-.08Zm0,8.75v5.89H13.3a19.74,19.74,0,0,0,3-.14,2.57,2.57,0,0,0,2.24-2.74A2.87,2.87,0,0,0,18.1,151a2.71,2.71,0,0,0-1.39-1,15,15,0,0,0-3.94-.32Z"/><path class="cls-3" d="M30.05,148.14l-3.83-.69A6,6,0,0,1,28.44,144a8.16,8.16,0,0,1,4.69-1.11,10.16,10.16,0,0,1,4.2.67,4.24,4.24,0,0,1,2,1.7,8.75,8.75,0,0,1,.56,3.77L39.79,154a16.55,16.55,0,0,0,.21,3.1,8.87,8.87,0,0,0,.75,2.14H36.58c-.11-.28-.24-.7-.4-1.25-.07-.25-.12-.41-.15-.49a7.74,7.74,0,0,1-2.32,1.57,6.6,6.6,0,0,1-2.62.53,5.43,5.43,0,0,1-3.88-1.34,4.42,4.42,0,0,1-1.42-3.38,4.55,4.55,0,0,1,.64-2.41,4.31,4.31,0,0,1,1.81-1.62,14.54,14.54,0,0,1,3.36-1,23.19,23.19,0,0,0,4.1-1v-.42a2.19,2.19,0,0,0-.61-1.73,3.54,3.54,0,0,0-2.26-.52,3,3,0,0,0-1.76.45A3,3,0,0,0,30.05,148.14Zm5.65,3.42c-.55.18-1.4.4-2.57.65a7.81,7.81,0,0,0-2.3.73,1.76,1.76,0,0,0-.82,1.49,2.07,2.07,0,0,0,.66,1.53,2.3,2.3,0,0,0,1.68.64,3.64,3.64,0,0,0,2.17-.75,2.64,2.64,0,0,0,1-1.39,8.3,8.3,0,0,0,.17-2.06Z"/><path class="cls-3" d="M58.5,159.22H54.28v-8.14a12.61,12.61,0,0,0-.27-3.34,2.34,2.34,0,0,0-.88-1.18,2.49,2.49,0,0,0-1.46-.42,3.4,3.4,0,0,0-2,.6,3,3,0,0,0-1.19,1.59,13.53,13.53,0,0,0-.33,3.67v7.22H44V143.27h3.91v2.35a6.42,6.42,0,0,1,5.26-2.71,6.24,6.24,0,0,1,2.55.51,4.27,4.27,0,0,1,1.75,1.28,4.65,4.65,0,0,1,.83,1.77,13.58,13.58,0,0,1,.23,2.84Z"/><path class="cls-3" d="M62.63,159.22v-22h4.22v11.68l4.93-5.62H77l-5.45,5.83,5.84,10.12H72.82l-4-7.16-2,2.05v5.11Z"/><path class="cls-3" d="M79.88,141.11v-3.9h4.21v3.9Zm0,18.11V143.27h4.21v15.95Z"/><path class="cls-3" d="M102.92,159.22H98.7v-8.14a12.61,12.61,0,0,0-.27-3.34,2.34,2.34,0,0,0-.88-1.18,2.49,2.49,0,0,0-1.46-.42,3.4,3.4,0,0,0-2,.6,3,3,0,0,0-1.19,1.59,13.65,13.65,0,0,0-.32,3.67v7.22H88.39V143.27h3.92v2.35a6.39,6.39,0,0,1,5.25-2.71,6.24,6.24,0,0,1,2.55.51,4.2,4.2,0,0,1,1.75,1.28,4.65,4.65,0,0,1,.83,1.77,13.58,13.58,0,0,1,.23,2.84Z"/><path class="cls-3" d="M106.81,160.27l4.82.58a1.65,1.65,0,0,0,.55,1.16,3.17,3.17,0,0,0,1.89.45,4.92,4.92,0,0,0,2.48-.5,2,2,0,0,0,.84-1.06,6.39,6.39,0,0,0,.2-1.94v-2.32a5.72,5.72,0,0,1-4.78,2.58,5.89,5.89,0,0,1-5.09-2.72,9.23,9.23,0,0,1-1.47-5.34,8.82,8.82,0,0,1,1.93-6.13,6.25,6.25,0,0,1,4.8-2.12,5.85,5.85,0,0,1,4.88,2.6v-2.24h3.94v14.31a14.31,14.31,0,0,1-.46,4.22A5.23,5.23,0,0,1,120,164a5.8,5.8,0,0,1-2.24,1.25,11.85,11.85,0,0,1-3.55.45c-2.7,0-4.62-.47-5.75-1.39a4.37,4.37,0,0,1-1.7-3.52C106.79,160.64,106.8,160.47,106.81,160.27Zm3.77-9.35a5.72,5.72,0,0,0,1,3.71,3,3,0,0,0,2.42,1.18,3.36,3.36,0,0,0,2.62-1.21,5.26,5.26,0,0,0,1.06-3.58,5.59,5.59,0,0,0-1-3.68,3.24,3.24,0,0,0-2.58-1.2,3.1,3.1,0,0,0-2.5,1.18A5.51,5.51,0,0,0,110.58,150.92Z"/><path class="cls-3" d="M135,165.69V136.84h3.34v28.85Z"/><path class="cls-4" d="M151.83,159.22v-22h7.58a19.19,19.19,0,0,1,3.92.31,7.59,7.59,0,0,1,3.23,1.58,8.94,8.94,0,0,1,2.6,3.76,14.67,14.67,0,0,1,.86,5.23,15.44,15.44,0,0,1-.58,4.45,10.7,10.7,0,0,1-1.5,3.2,7.93,7.93,0,0,1-2,2,8.24,8.24,0,0,1-2.62,1.1,15.06,15.06,0,0,1-3.54.38Zm2.91-2.6h4.7a11.49,11.49,0,0,0,3.42-.4,5,5,0,0,0,2-1.15,6.83,6.83,0,0,0,1.61-2.78,13.49,13.49,0,0,0,.58-4.24,10.33,10.33,0,0,0-1.13-5.31,5.75,5.75,0,0,0-2.76-2.48,11.34,11.34,0,0,0-3.76-.45h-4.63Z"/><path class="cls-4" d="M173.7,140.32v-3.11h2.7v3.11Zm0,18.9V143.27h2.7v15.95Z"/><path class="cls-4" d="M180,160.54l2.63.39a2.47,2.47,0,0,0,.92,1.77,4.48,4.48,0,0,0,2.74.75,4.84,4.84,0,0,0,2.9-.75,3.69,3.69,0,0,0,1.38-2.1,17.17,17.17,0,0,0,.2-3.47,5.59,5.59,0,0,1-4.42,2.09,6,6,0,0,1-5.09-2.38,9.11,9.11,0,0,1-1.8-5.68,10.63,10.63,0,0,1,.83-4.22,6.63,6.63,0,0,1,2.39-3,6.43,6.43,0,0,1,3.69-1.06A5.69,5.69,0,0,1,191,145.2v-1.93h2.49v13.79a13.15,13.15,0,0,1-.75,5.27,5.55,5.55,0,0,1-2.41,2.46,8.29,8.29,0,0,1-4,.9,7.61,7.61,0,0,1-4.61-1.29A4.33,4.33,0,0,1,180,160.54Zm2.24-9.58a6.87,6.87,0,0,0,1.25,4.58,4,4,0,0,0,3.12,1.44,4,4,0,0,0,3.12-1.43,6.72,6.72,0,0,0,1.26-4.5,6.51,6.51,0,0,0-1.3-4.41,4,4,0,0,0-3.13-1.49,3.91,3.91,0,0,0-3.06,1.46A6.53,6.53,0,0,0,182.26,151Z"/><path class="cls-4" d="M197.63,140.32v-3.11h2.7v3.11Zm0,18.9V143.27h2.7v15.95Z"/><path class="cls-4" d="M210.35,156.8l.39,2.39a10,10,0,0,1-2,.24,4.63,4.63,0,0,1-2.29-.47,2.62,2.62,0,0,1-1.14-1.22,9.71,9.71,0,0,1-.33-3.19v-9.17h-2v-2.11h2v-3.94l2.69-1.63v5.57h2.72v2.11h-2.72v9.32a4.86,4.86,0,0,0,.14,1.48,1.1,1.1,0,0,0,.47.53,1.77,1.77,0,0,0,.92.2A9,9,0,0,0,210.35,156.8Z"/><path class="cls-4" d="M223.39,157.25a10,10,0,0,1-2.89,1.8,8.34,8.34,0,0,1-3,.53,5.8,5.8,0,0,1-4-1.29,4.23,4.23,0,0,1-1.41-3.28,4.33,4.33,0,0,1,.54-2.14,4.43,4.43,0,0,1,1.39-1.55,6.94,6.94,0,0,1,1.95-.89,21.65,21.65,0,0,1,2.4-.4,24.75,24.75,0,0,0,4.82-.93c0-.37,0-.61,0-.71a3,3,0,0,0-.76-2.32,4.53,4.53,0,0,0-3.08-.92,4.77,4.77,0,0,0-2.82.67,4.08,4.08,0,0,0-1.34,2.36l-2.64-.36a6.58,6.58,0,0,1,1.18-2.74,5.2,5.2,0,0,1,2.39-1.6,10.54,10.54,0,0,1,3.62-.57,9.84,9.84,0,0,1,3.32.48,4.49,4.49,0,0,1,1.87,1.21,4.28,4.28,0,0,1,.84,1.84,15,15,0,0,1,.14,2.49v3.61a39.39,39.39,0,0,0,.17,4.76,5.9,5.9,0,0,0,.69,1.92h-2.83A5.75,5.75,0,0,1,223.39,157.25Zm-.22-6a19.78,19.78,0,0,1-4.42,1,10.14,10.14,0,0,0-2.35.54,2.34,2.34,0,0,0-1.07.88,2.28,2.28,0,0,0-.37,1.28,2.31,2.31,0,0,0,.81,1.8,3.55,3.55,0,0,0,2.4.72,5.67,5.67,0,0,0,2.78-.68,4.22,4.22,0,0,0,1.78-1.87,6.51,6.51,0,0,0,.44-2.7Z"/><path class="cls-4" d="M230,159.22v-22h2.7v22Z"/><path class="cls-4" d="M261.51,151.5l2.91.74a9.85,9.85,0,0,1-3.29,5.47,9.13,9.13,0,0,1-5.82,1.88,10.44,10.44,0,0,1-5.79-1.45,9,9,0,0,1-3.39-4.19,14.89,14.89,0,0,1-1.16-5.9,12.94,12.94,0,0,1,1.31-6,9,9,0,0,1,3.74-3.89,10.94,10.94,0,0,1,5.33-1.32,9.1,9.1,0,0,1,5.56,1.67,8.83,8.83,0,0,1,3.14,4.74l-2.87.67a6.81,6.81,0,0,0-2.22-3.5,5.94,5.94,0,0,0-3.67-1.09,7.13,7.13,0,0,0-4.24,1.21,6.44,6.44,0,0,0-2.39,3.27A13.1,13.1,0,0,0,248,148a13.27,13.27,0,0,0,.82,4.9,6.11,6.11,0,0,0,2.54,3.14,7.14,7.14,0,0,0,3.74,1,6.26,6.26,0,0,0,4.14-1.41A7.23,7.23,0,0,0,261.51,151.5Z"/><path class="cls-4" d="M266.66,151.25c0-3,.82-5.14,2.46-6.57a7.46,7.46,0,0,1,5-1.77,7.14,7.14,0,0,1,5.38,2.16,8.21,8.21,0,0,1,2.09,6,10.46,10.46,0,0,1-.93,4.84A6.46,6.46,0,0,1,278,158.6a7.82,7.82,0,0,1-3.85,1,7.18,7.18,0,0,1-5.41-2.15A8.59,8.59,0,0,1,266.66,151.25Zm2.77,0a6.77,6.77,0,0,0,1.34,4.58,4.44,4.44,0,0,0,6.71,0,7,7,0,0,0,1.34-4.67,6.58,6.58,0,0,0-1.35-4.49,4.45,4.45,0,0,0-6.7,0A6.75,6.75,0,0,0,269.43,151.25Z"/><path class="cls-4" d="M284.76,159.22V143.27h2.43v2.27a5.76,5.76,0,0,1,5.08-2.63,6.77,6.77,0,0,1,2.65.52,4.25,4.25,0,0,1,1.81,1.36,5.23,5.23,0,0,1,.84,2,15.45,15.45,0,0,1,.15,2.63v9.8H295v-9.7a7.25,7.25,0,0,0-.32-2.47,2.63,2.63,0,0,0-1.12-1.31,3.58,3.58,0,0,0-1.88-.48,4.37,4.37,0,0,0-3,1.09c-.84.73-1.26,2.12-1.26,4.16v8.71Z"/><path class="cls-4" d="M312.26,153.38l2.66.34a6.86,6.86,0,0,1-2.23,4.3,6.45,6.45,0,0,1-4.4,1.56,6.88,6.88,0,0,1-5.27-2.14,8.71,8.71,0,0,1-2-6.13,11.11,11.11,0,0,1,.85-4.52,6,6,0,0,1,2.61-2.91,7.75,7.75,0,0,1,3.8-1,6.6,6.6,0,0,1,4.25,1.32,6,6,0,0,1,2.12,3.73l-2.63.4a4.32,4.32,0,0,0-1.33-2.41,3.42,3.42,0,0,0-2.3-.81,4.18,4.18,0,0,0-3.32,1.46,7,7,0,0,0-1.28,4.63A7.19,7.19,0,0,0,305,155.9a4,4,0,0,0,3.22,1.46,3.77,3.77,0,0,0,2.65-1A4.84,4.84,0,0,0,312.26,153.38Z"/><path class="cls-4" d="M317.25,140.32v-3.11H320v3.11Zm0,18.9V143.27H320v15.95Z"/><path class="cls-4" d="M335,154.08l2.79.35a6.83,6.83,0,0,1-2.45,3.8,8.28,8.28,0,0,1-10.11-.81,8.43,8.43,0,0,1-2-6,8.76,8.76,0,0,1,2.08-6.24,7,7,0,0,1,5.37-2.23,6.81,6.81,0,0,1,5.22,2.18,8.65,8.65,0,0,1,2,6.13c0,.16,0,.4,0,.72H326a6.12,6.12,0,0,0,1.48,4,4.42,4.42,0,0,0,3.33,1.4,4.19,4.19,0,0,0,2.54-.78A5.22,5.22,0,0,0,335,154.08Zm-8.87-4.37H335a5.38,5.38,0,0,0-1-3,4.15,4.15,0,0,0-3.35-1.56,4.28,4.28,0,0,0-3.13,1.24A4.9,4.9,0,0,0,326.11,149.71Z"/><path class="cls-4" d="M341.13,159.22V143.27h2.44v2.42a6.79,6.79,0,0,1,1.71-2.24,3,3,0,0,1,1.74-.54,5.31,5.31,0,0,1,2.78.87l-.94,2.51a3.86,3.86,0,0,0-2-.58,2.54,2.54,0,0,0-1.59.53,2.86,2.86,0,0,0-1,1.48,10.52,10.52,0,0,0-.45,3.15v8.35Z"/><path class="cls-4" d="M350.91,160.54l2.62.39a2.51,2.51,0,0,0,.92,1.77,4.49,4.49,0,0,0,2.75.75,4.8,4.8,0,0,0,2.89-.75,3.69,3.69,0,0,0,1.38-2.1,17.17,17.17,0,0,0,.2-3.47,5.56,5.56,0,0,1-4.41,2.09,6,6,0,0,1-5.09-2.38,9.11,9.11,0,0,1-1.8-5.68,10.62,10.62,0,0,1,.82-4.22,6.59,6.59,0,0,1,2.4-3,6.37,6.37,0,0,1,3.68-1.06,5.72,5.72,0,0,1,4.66,2.29v-1.93h2.49v13.79a13.11,13.11,0,0,1-.76,5.27,5.58,5.58,0,0,1-2.4,2.46,8.36,8.36,0,0,1-4.05.9,7.61,7.61,0,0,1-4.61-1.29A4.32,4.32,0,0,1,350.91,160.54Zm2.23-9.58a6.92,6.92,0,0,0,1.25,4.58,4,4,0,0,0,3.12,1.44,4,4,0,0,0,3.12-1.43,6.72,6.72,0,0,0,1.26-4.5,6.56,6.56,0,0,0-1.29-4.41,4,4,0,0,0-3.13-1.49,3.93,3.93,0,0,0-3.07,1.46A6.53,6.53,0,0,0,353.14,151Z"/><path class="cls-4" d="M379.41,154.08l2.8.35a6.83,6.83,0,0,1-2.45,3.8,7.35,7.35,0,0,1-4.56,1.35,7.27,7.27,0,0,1-5.55-2.16,8.39,8.39,0,0,1-2-6,8.8,8.8,0,0,1,2.07-6.24,7,7,0,0,1,5.38-2.23,6.81,6.81,0,0,1,5.22,2.18,8.65,8.65,0,0,1,2,6.13c0,.16,0,.4,0,.72H370.39a6.12,6.12,0,0,0,1.49,4,4.42,4.42,0,0,0,3.33,1.4,4.21,4.21,0,0,0,2.54-.78A5.21,5.21,0,0,0,379.41,154.08Zm-8.87-4.37h8.9a5.38,5.38,0,0,0-1-3,4.13,4.13,0,0,0-3.34-1.56,4.27,4.27,0,0,0-3.13,1.24A4.91,4.91,0,0,0,370.54,149.71Z"/></g></g></svg>