<svg xmlns="http://www.w3.org/2000/svg" xmlns:xlink="http://www.w3.org/1999/xlink" viewBox="0 0 398.54 165.35"><defs><style>.cls-1{fill:url(#linear-gradient);}.cls-2{fill:url(#linear-gradient-2);}.cls-3{fill:#fff;}.cls-4{fill:#085aff;}</style><linearGradient id="linear-gradient" y1="14.79" x2="199.53" y2="14.79" gradientUnits="userSpaceOnUse"><stop offset="0" stop-color="#f9ca87"/><stop offset="1" stop-color="#f06e7c"/></linearGradient><linearGradient id="linear-gradient-2" y1="48.79" x2="129.39" y2="48.79" xlink:href="#linear-gradient"/></defs><title>content-left</title><g id="Layer_2" data-name="Layer 2"><g id="Layer_1-2" data-name="Layer 1"><rect class="cls-1" width="199.53" height="29.58"/><rect class="cls-2" y="34" width="129.39" height="29.58"/><path class="cls-3" d="M8.21,22.72,3.12,3.54h2.6L8.64,16.11q.46,2,.81,3.93c.49-2.05.78-3.23.86-3.55L14,3.54H17l2.75,9.71A53.8,53.8,0,0,1,21.27,20c.24-1.21.56-2.61.95-4.18l3-12.32h2.55L22.52,22.72H20.08L16,8.1q-.51-1.83-.6-2.25c-.2.89-.39,1.64-.56,2.25L10.8,22.72Z"/><path class="cls-3" d="M38.88,18.25l2.44.3a6,6,0,0,1-2.14,3.31,6.44,6.44,0,0,1-4,1.18,6.36,6.36,0,0,1-4.83-1.88,7.35,7.35,0,0,1-1.79-5.27,7.64,7.64,0,0,1,1.81-5.44,6.1,6.1,0,0,1,4.68-1.94,5.94,5.94,0,0,1,4.56,1.9,7.56,7.56,0,0,1,1.76,5.34c0,.14,0,.35,0,.62H31a5.33,5.33,0,0,0,1.29,3.51,3.88,3.88,0,0,0,2.91,1.22,3.63,3.63,0,0,0,2.21-.68A4.58,4.58,0,0,0,38.88,18.25Zm-7.73-3.81h7.76A4.72,4.72,0,0,0,38,11.81a3.61,3.61,0,0,0-2.92-1.36,3.76,3.76,0,0,0-2.73,1.08A4.32,4.32,0,0,0,31.15,14.44Z"/><path class="cls-3" d="M60.79,21a9.12,9.12,0,0,1-2.52,1.57,7.44,7.44,0,0,1-2.6.46,5.08,5.08,0,0,1-3.52-1.12,3.7,3.7,0,0,1-1.23-2.86,3.9,3.9,0,0,1,1.68-3.22,5.61,5.61,0,0,1,1.7-.77,16.3,16.3,0,0,1,2.09-.36,20.66,20.66,0,0,0,4.2-.81c0-.32,0-.53,0-.61a2.62,2.62,0,0,0-.66-2,4,4,0,0,0-2.69-.8A4.16,4.16,0,0,0,54.8,11a3.55,3.55,0,0,0-1.17,2.06l-2.3-.31a5.72,5.72,0,0,1,1-2.39A4.51,4.51,0,0,1,54.44,9a9.22,9.22,0,0,1,3.15-.49,8.39,8.39,0,0,1,2.9.42A3.84,3.84,0,0,1,62.12,10a3.62,3.62,0,0,1,.73,1.61A13,13,0,0,1,63,13.76V16.9a33.34,33.34,0,0,0,.15,4.15,5.16,5.16,0,0,0,.6,1.67H61.26A4.88,4.88,0,0,1,60.79,21Zm-.2-5.26a17.51,17.51,0,0,1-3.85.89,8.69,8.69,0,0,0-2.05.47,2.07,2.07,0,0,0-.93.76,2.07,2.07,0,0,0,.39,2.69,3,3,0,0,0,2.08.63,4.9,4.9,0,0,0,2.42-.59A3.66,3.66,0,0,0,60.21,19a5.78,5.78,0,0,0,.38-2.36Z"/><path class="cls-3" d="M66.6,22.72V8.82h2.12v2.11A5.84,5.84,0,0,1,70.22,9a2.62,2.62,0,0,1,1.51-.47,4.57,4.57,0,0,1,2.42.76l-.81,2.19a3.33,3.33,0,0,0-1.73-.52,2.24,2.24,0,0,0-1.39.47,2.56,2.56,0,0,0-.88,1.29A9.23,9.23,0,0,0,69,15.45v7.27Z"/><path class="cls-3" d="M85.06,18.25l2.43.3a5.93,5.93,0,0,1-2.13,3.31,6.44,6.44,0,0,1-4,1.18,6.36,6.36,0,0,1-4.83-1.88,7.35,7.35,0,0,1-1.79-5.27,7.64,7.64,0,0,1,1.81-5.44,6.1,6.1,0,0,1,4.68-1.94,5.94,5.94,0,0,1,4.56,1.9,7.56,7.56,0,0,1,1.76,5.34c0,.14,0,.35,0,.62H77.2a5.33,5.33,0,0,0,1.29,3.51A3.88,3.88,0,0,0,81.4,21.1a3.63,3.63,0,0,0,2.21-.68A4.58,4.58,0,0,0,85.06,18.25Zm-7.73-3.81h7.76a4.72,4.72,0,0,0-.89-2.63,3.61,3.61,0,0,0-2.92-1.36,3.76,3.76,0,0,0-2.73,1.08A4.32,4.32,0,0,0,77.33,14.44Z"/><path class="cls-3" d="M97.9,22.72V3.54h2.35v6.88a5.28,5.28,0,0,1,4.16-1.91,5.59,5.59,0,0,1,2.69.61,3.53,3.53,0,0,1,1.63,1.68,7.9,7.9,0,0,1,.49,3.12v8.8h-2.36v-8.8a3.67,3.67,0,0,0-.76-2.58,2.88,2.88,0,0,0-2.17-.8,3.84,3.84,0,0,0-2,.54,3.06,3.06,0,0,0-1.31,1.47,6.62,6.62,0,0,0-.4,2.57v7.6Z"/><path class="cls-3" d="M121.87,21a8.84,8.84,0,0,1-2.52,1.57,7.35,7.35,0,0,1-2.59.46,5.1,5.1,0,0,1-3.53-1.12A3.7,3.7,0,0,1,112,19.06a3.85,3.85,0,0,1,.47-1.87,3.78,3.78,0,0,1,1.22-1.35,5.55,5.55,0,0,1,1.69-.77,16.3,16.3,0,0,1,2.09-.36,20.64,20.64,0,0,0,4.21-.81c0-.32,0-.53,0-.61a2.58,2.58,0,0,0-.67-2,4,4,0,0,0-2.68-.8,4.17,4.17,0,0,0-2.46.58,3.66,3.66,0,0,0-1.17,2.06l-2.3-.31a5.72,5.72,0,0,1,1-2.39A4.56,4.56,0,0,1,115.52,9a9.24,9.24,0,0,1,3.16-.49,8.33,8.33,0,0,1,2.89.42A3.88,3.88,0,0,1,123.21,10a3.86,3.86,0,0,1,.73,1.61,13,13,0,0,1,.12,2.17V16.9a33.34,33.34,0,0,0,.15,4.15,5.38,5.38,0,0,0,.59,1.67h-2.46A5.11,5.11,0,0,1,121.87,21Zm-.19-5.26a17.65,17.65,0,0,1-3.85.89,8.67,8.67,0,0,0-2.06.47,2.07,2.07,0,0,0-.93.76,2.09,2.09,0,0,0-.32,1.12,2,2,0,0,0,.71,1.57,3.07,3.07,0,0,0,2.09.63,5,5,0,0,0,2.42-.59A3.71,3.71,0,0,0,121.3,19a5.78,5.78,0,0,0,.38-2.36Z"/><path class="cls-3" d="M127.71,28.05V8.82h2.14v1.81A5.24,5.24,0,0,1,131.57,9a4.72,4.72,0,0,1,2.31-.53,5.47,5.47,0,0,1,3.14.92A5.6,5.6,0,0,1,139.08,12a9.47,9.47,0,0,1,.69,3.66,9.3,9.3,0,0,1-.76,3.84,5.83,5.83,0,0,1-5.3,3.53,4.44,4.44,0,0,1-2.11-.5,4.79,4.79,0,0,1-1.54-1.26v6.77Zm2.13-12.2a6,6,0,0,0,1.09,4,3.34,3.34,0,0,0,2.63,1.28,3.41,3.41,0,0,0,2.69-1.33,6.33,6.33,0,0,0,1.11-4.11,6.12,6.12,0,0,0-1.09-4,3.29,3.29,0,0,0-2.61-1.32,3.37,3.37,0,0,0-2.66,1.4A6.31,6.31,0,0,0,129.84,15.85Z"/><path class="cls-3" d="M142.61,28.05V8.82h2.15v1.81A5.22,5.22,0,0,1,146.47,9a4.76,4.76,0,0,1,2.32-.53,5.5,5.5,0,0,1,3.14.92A5.58,5.58,0,0,1,154,12a9.29,9.29,0,0,1,.7,3.66,9.3,9.3,0,0,1-.77,3.84A5.81,5.81,0,0,1,148.62,23a4.41,4.41,0,0,1-2.11-.5A4.68,4.68,0,0,1,145,21.28v6.77Zm2.14-12.2a6.09,6.09,0,0,0,1.08,4,3.36,3.36,0,0,0,5.32-.05,6.27,6.27,0,0,0,1.12-4.11,6.12,6.12,0,0,0-1.09-4,3.29,3.29,0,0,0-2.61-1.32,3.39,3.39,0,0,0-2.67,1.4A6.31,6.31,0,0,0,144.75,15.85Z"/><path class="cls-3" d="M157.41,28.07l-.26-2.21a5.24,5.24,0,0,0,1.35.21,2.68,2.68,0,0,0,1.26-.26,2.15,2.15,0,0,0,.77-.73,11.29,11.29,0,0,0,.72-1.76q.06-.2.21-.57L156.18,8.82h2.54l2.89,8.05c.38,1,.71,2.1,1,3.22a30.6,30.6,0,0,1,1-3.17l3-8.1h2.36L163.63,23a29.15,29.15,0,0,1-1.32,3.15,4.64,4.64,0,0,1-1.44,1.71,3.42,3.42,0,0,1-1.94.54A4.55,4.55,0,0,1,157.41,28.07Z"/><path class="cls-3" d="M183.51,20.62l.34,2.08a9.58,9.58,0,0,1-1.78.21,4,4,0,0,1-2-.41,2.34,2.34,0,0,1-1-1.07,8.52,8.52,0,0,1-.28-2.78v-8h-1.73V8.82h1.73V5.38L181.14,4V8.82h2.37v1.84h-2.37v8.12a4.24,4.24,0,0,0,.12,1.3,1,1,0,0,0,.41.46,1.59,1.59,0,0,0,.8.17A7.93,7.93,0,0,0,183.51,20.62Z"/><path class="cls-3" d="M184.93,15.77q0-3.86,2.15-5.72a6.5,6.5,0,0,1,4.37-1.54,6.23,6.23,0,0,1,4.68,1.88A7.11,7.11,0,0,1,198,15.58a9.29,9.29,0,0,1-.8,4.22,5.79,5.79,0,0,1-2.34,2.39,6.93,6.93,0,0,1-3.36.85,6.24,6.24,0,0,1-4.72-1.88A7.45,7.45,0,0,1,184.93,15.77Zm2.42,0a5.9,5.9,0,0,0,1.17,4,3.87,3.87,0,0,0,5.85,0,6.08,6.08,0,0,0,1.16-4.07,5.73,5.73,0,0,0-1.17-3.9,3.88,3.88,0,0,0-5.84,0A5.87,5.87,0,0,0,187.35,15.77Z"/><path class="cls-3" d="M4.56,54.88V35.7H6.91v6.88a5.28,5.28,0,0,1,4.16-1.91,5.59,5.59,0,0,1,2.69.61A3.58,3.58,0,0,1,15.39,43a7.9,7.9,0,0,1,.49,3.12v8.8H13.52v-8.8a3.67,3.67,0,0,0-.76-2.58,2.9,2.9,0,0,0-2.17-.8,3.84,3.84,0,0,0-2,.54A3.13,3.13,0,0,0,7.3,44.71a6.84,6.84,0,0,0-.39,2.57v7.6Z"/><path class="cls-3" d="M29,50.41l2.44.3A6,6,0,0,1,29.28,54a6.46,6.46,0,0,1-4,1.18,6.38,6.38,0,0,1-4.84-1.88,7.34,7.34,0,0,1-1.78-5.27,7.68,7.68,0,0,1,1.8-5.44,6.14,6.14,0,0,1,4.69-1.94,5.92,5.92,0,0,1,4.55,1.9,7.51,7.51,0,0,1,1.77,5.34c0,.14,0,.35,0,.63H21.11a5.33,5.33,0,0,0,1.3,3.5,3.84,3.84,0,0,0,2.9,1.22,3.63,3.63,0,0,0,2.21-.68A4.51,4.51,0,0,0,29,50.41ZM21.24,46.6H29A4.65,4.65,0,0,0,28.11,44a3.6,3.6,0,0,0-2.92-1.36,3.73,3.73,0,0,0-2.72,1.08A4.33,4.33,0,0,0,21.24,46.6Z"/><path class="cls-3" d="M34.31,54.88V35.7h2.36V54.88Z"/><path class="cls-3" d="M40.32,60.21V41h2.15v1.81a5.12,5.12,0,0,1,1.71-1.59,4.76,4.76,0,0,1,2.32-.53,5.52,5.52,0,0,1,3.14.92,5.64,5.64,0,0,1,2,2.58,9.47,9.47,0,0,1,.7,3.66,9.3,9.3,0,0,1-.77,3.84,5.81,5.81,0,0,1-5.29,3.53,4.48,4.48,0,0,1-2.12-.5,4.75,4.75,0,0,1-1.53-1.26v6.77ZM42.45,48a6.09,6.09,0,0,0,1.09,4,3.34,3.34,0,0,0,2.63,1.28,3.4,3.4,0,0,0,2.69-1.33A6.32,6.32,0,0,0,50,47.82a6.18,6.18,0,0,0-1.09-4,3.3,3.3,0,0,0-2.62-1.32,3.37,3.37,0,0,0-2.66,1.4A6.31,6.31,0,0,0,42.45,48Z"/><path class="cls-3" d="M62.57,60.23,62.3,58a5.31,5.31,0,0,0,1.35.21A2.65,2.65,0,0,0,64.91,58a2.15,2.15,0,0,0,.77-.73,11.29,11.29,0,0,0,.72-1.76q.06-.19.21-.57L61.34,41h2.54L66.77,49c.37,1,.71,2.1,1,3.22.28-1.08.6-2.14,1-3.17l3-8.1h2.36L68.78,55.12a27.2,27.2,0,0,1-1.32,3.15A4.64,4.64,0,0,1,66,60a3.42,3.42,0,0,1-1.94.54A4.45,4.45,0,0,1,62.57,60.23Z"/><path class="cls-3" d="M75.19,47.93q0-3.85,2.15-5.72a6.52,6.52,0,0,1,4.37-1.54,6.27,6.27,0,0,1,4.69,1.88,7.15,7.15,0,0,1,1.81,5.19,9.16,9.16,0,0,1-.8,4.22,5.79,5.79,0,0,1-2.34,2.39,6.93,6.93,0,0,1-3.36.85A6.26,6.26,0,0,1,77,53.32,7.45,7.45,0,0,1,75.19,47.93Zm2.42,0a5.9,5.9,0,0,0,1.17,4,3.87,3.87,0,0,0,5.85,0,6,6,0,0,0,1.16-4.07A5.73,5.73,0,0,0,84.62,44a3.88,3.88,0,0,0-5.84,0A5.87,5.87,0,0,0,77.61,47.93Z"/><path class="cls-3" d="M100.08,54.88v-2a5.09,5.09,0,0,1-4.41,2.36,5.5,5.5,0,0,1-2.29-.48,3.77,3.77,0,0,1-1.59-1.18,4.48,4.48,0,0,1-.72-1.75,11.44,11.44,0,0,1-.15-2.2V41h2.36v7.71a14.54,14.54,0,0,0,.14,2.49,2.53,2.53,0,0,0,.94,1.46,3,3,0,0,0,1.78.53,3.8,3.8,0,0,0,2-.55,3,3,0,0,0,1.32-1.47,7.42,7.42,0,0,0,.38-2.72V41h2.36v13.9Z"/><path class="cls-3" d="M106.55,54.88V52.2h2.68v2.68Z"/><path class="cls-3" d="M114,54.88V52.2h2.69v2.68Z"/><path class="cls-3" d="M121.44,54.88V52.2h2.68v2.68Z"/><path class="cls-3" d="M21.6,107.23l3,.76a10.15,10.15,0,0,1-3.43,5.7,9.43,9.43,0,0,1-6,2,10.81,10.81,0,0,1-6-1.51,9.39,9.39,0,0,1-3.54-4.37,15.68,15.68,0,0,1-1.21-6.14,13.53,13.53,0,0,1,1.37-6.24,9.46,9.46,0,0,1,3.89-4A11.4,11.4,0,0,1,15.2,92,9.36,9.36,0,0,1,21,93.71a9.09,9.09,0,0,1,3.26,4.92l-3,.71A7.05,7.05,0,0,0,19,95.7a6.17,6.17,0,0,0-3.82-1.15,7.42,7.42,0,0,0-4.41,1.27,6.69,6.69,0,0,0-2.49,3.4,13.66,13.66,0,0,0-.72,4.4,13.9,13.9,0,0,0,.85,5.1A6.37,6.37,0,0,0,11,112a7.4,7.4,0,0,0,3.89,1.07,6.5,6.5,0,0,0,4.31-1.46A7.49,7.49,0,0,0,21.6,107.23Z"/><path class="cls-3" d="M28,115.26V92.35h2.81v8.22a6.28,6.28,0,0,1,5-2.28A6.6,6.6,0,0,1,39,99a4.24,4.24,0,0,1,1.95,2,9.32,9.32,0,0,1,.58,3.72v10.52H38.71V104.74a4.35,4.35,0,0,0-.91-3.07,3.4,3.4,0,0,0-2.59-1,4.58,4.58,0,0,0-2.35.65,3.66,3.66,0,0,0-1.57,1.76,8.11,8.11,0,0,0-.47,3.06v9.08Z"/><path class="cls-3" d="M56.63,113.21a10.51,10.51,0,0,1-3,1.88,8.84,8.84,0,0,1-3.11.54,6,6,0,0,1-4.2-1.33,4.41,4.41,0,0,1-1.47-3.42,4.67,4.67,0,0,1,2-3.84,6.77,6.77,0,0,1,2-.92,18.86,18.86,0,0,1,2.5-.42,26,26,0,0,0,5-1c0-.39,0-.63,0-.74a3.12,3.12,0,0,0-.8-2.42,4.74,4.74,0,0,0-3.2-.95,5,5,0,0,0-2.93.69,4.28,4.28,0,0,0-1.4,2.46l-2.75-.37a6.8,6.8,0,0,1,1.23-2.85,5.42,5.42,0,0,1,2.49-1.68,11,11,0,0,1,3.76-.58,10,10,0,0,1,3.45.5,4.5,4.5,0,0,1,2,1.26A4.38,4.38,0,0,1,59.1,102a15.11,15.11,0,0,1,.14,2.59v3.75a39.94,39.94,0,0,0,.18,5,6.42,6.42,0,0,0,.71,2H57.2A5.93,5.93,0,0,1,56.63,113.21Zm-.23-6.28A20.35,20.35,0,0,1,51.81,108a11.36,11.36,0,0,0-2.46.56,2.47,2.47,0,0,0-1.11.92,2.49,2.49,0,0,0,.46,3.21,3.68,3.68,0,0,0,2.5.75,5.87,5.87,0,0,0,2.89-.71,4.38,4.38,0,0,0,1.86-2A6.8,6.8,0,0,0,56.4,108Z"/><path class="cls-3" d="M69.74,112.74l.41,2.49a10.92,10.92,0,0,1-2.13.25,4.81,4.81,0,0,1-2.37-.49,2.7,2.7,0,0,1-1.19-1.27,10.08,10.08,0,0,1-.34-3.32v-9.55H62.06V98.66h2.06V94.55l2.8-1.68v5.79h2.82v2.19H66.92v9.7a5,5,0,0,0,.14,1.55,1.18,1.18,0,0,0,.49.55,1.81,1.81,0,0,0,1,.2A8.1,8.1,0,0,0,69.74,112.74Z"/><path class="cls-3" d="M84.45,115.26l-5.08-16.6h2.9l2.65,9.58,1,3.56c0-.17.33-1.31.86-3.42l2.64-9.72h2.89l2.48,9.63.83,3.17,1-3.2,2.84-9.6h2.73L97,115.26H94l-2.64-9.94-.64-2.83-3.36,12.77Z"/><path class="cls-3" d="M104.51,95.59V92.35h2.81v3.24Zm0,19.67V98.66h2.81v16.6Z"/><path class="cls-3" d="M117.74,112.74l.41,2.49a10.92,10.92,0,0,1-2.13.25,4.81,4.81,0,0,1-2.37-.49,2.7,2.7,0,0,1-1.19-1.27,10.08,10.08,0,0,1-.34-3.32v-9.55h-2.06V98.66h2.06V94.55l2.8-1.68v5.79h2.82v2.19h-2.82v9.7a5,5,0,0,0,.14,1.55,1.18,1.18,0,0,0,.49.55,1.81,1.81,0,0,0,1,.2A8.1,8.1,0,0,0,117.74,112.74Z"/><path class="cls-3" d="M120.49,115.26V92.35h2.82v8.22a6.26,6.26,0,0,1,5-2.28,6.67,6.67,0,0,1,3.21.73,4.26,4.26,0,0,1,1.94,2,9.3,9.3,0,0,1,.59,3.72v10.52H131.2V104.74a4.35,4.35,0,0,0-.92-3.07,3.39,3.39,0,0,0-2.58-1,4.61,4.61,0,0,0-2.36.65,3.71,3.71,0,0,0-1.57,1.76,8.14,8.14,0,0,0-.46,3.06v9.08Z"/><path class="cls-3" d="M146.13,107q0-4.6,2.57-6.83a7.69,7.69,0,0,1,5.22-1.84,7.46,7.46,0,0,1,5.59,2.24,8.53,8.53,0,0,1,2.17,6.2,11,11,0,0,1-1,5,6.81,6.81,0,0,1-2.8,2.85,8.2,8.2,0,0,1-4,1,7.46,7.46,0,0,1-5.64-2.23A9,9,0,0,1,146.13,107Zm2.89,0a7,7,0,0,0,1.4,4.77,4.63,4.63,0,0,0,7,0,7.25,7.25,0,0,0,1.39-4.86,6.89,6.89,0,0,0-1.4-4.67,4.63,4.63,0,0,0-7,0A7,7,0,0,0,149,107Z"/><path class="cls-3" d="M175.85,115.26v-2.44a6,6,0,0,1-5.26,2.81,6.66,6.66,0,0,1-2.75-.56,4.65,4.65,0,0,1-1.89-1.41,5.27,5.27,0,0,1-.86-2.09,13.82,13.82,0,0,1-.17-2.62V98.66h2.81v9.21a16,16,0,0,0,.17,3,2.94,2.94,0,0,0,1.12,1.74,3.53,3.53,0,0,0,2.13.63,4.55,4.55,0,0,0,2.37-.65,3.57,3.57,0,0,0,1.57-1.76,8.83,8.83,0,0,0,.47-3.25V98.66h2.81v16.6Z"/><path class="cls-3" d="M182.74,115.26V98.66h2.53v2.52a7,7,0,0,1,1.79-2.33,3.17,3.17,0,0,1,1.81-.56,5.44,5.44,0,0,1,2.89.91l-1,2.6a4.06,4.06,0,0,0-2.06-.6,2.67,2.67,0,0,0-1.66.55,3,3,0,0,0-1,1.54,11,11,0,0,0-.46,3.28v8.69Z"/><path class="cls-3" d="M4.66,158.89v-22h6.63l4,15,3.94-15h6.65v22H21.75V141.6l-4.36,17.29H13.12L8.78,141.6v17.29Z"/><path class="cls-3" d="M29.27,150.71a8.59,8.59,0,0,1,1-4.06,7.13,7.13,0,0,1,2.93-3,8.72,8.72,0,0,1,4.24-1A8,8,0,0,1,43.38,145a8.8,8.8,0,0,1,0,11.91,7.85,7.85,0,0,1-5.87,2.38,9.27,9.27,0,0,1-4.17-1,6.83,6.83,0,0,1-3-2.9A9.63,9.63,0,0,1,29.27,150.71Zm4.31.22a5.28,5.28,0,0,0,1.13,3.63,3.66,3.66,0,0,0,5.53,0,5.33,5.33,0,0,0,1.12-3.66,5.22,5.22,0,0,0-1.12-3.59,3.66,3.66,0,0,0-5.53,0A5.27,5.27,0,0,0,33.58,150.93Z"/><path class="cls-3" d="M53,158.89H48.81V143h3.91v2.26a6.71,6.71,0,0,1,1.8-2.11,3.3,3.3,0,0,1,1.82-.51,5.33,5.33,0,0,1,2.77.79l-1.3,3.67a3.68,3.68,0,0,0-2-.68,2.36,2.36,0,0,0-1.5.48,3.31,3.31,0,0,0-1,1.76A24.75,24.75,0,0,0,53,154Z"/><path class="cls-3" d="M68.22,143v3.35H65.34v6.42a14.65,14.65,0,0,0,.09,2.27.93.93,0,0,0,.37.53,1.19,1.19,0,0,0,.71.21,5.52,5.52,0,0,0,1.7-.41l.36,3.27a8.38,8.38,0,0,1-3.33.63,5.35,5.35,0,0,1-2-.38,3,3,0,0,1-1.34-1,3.73,3.73,0,0,1-.59-1.64,20.19,20.19,0,0,1-.14-3v-6.94H59.19V143h1.93v-3.16l4.22-2.46V143Z"/><path class="cls-3" d="M70.75,159.94l4.81.58a1.66,1.66,0,0,0,.56,1.16,3.13,3.13,0,0,0,1.88.45,4.92,4.92,0,0,0,2.48-.5,2.06,2.06,0,0,0,.83-1.06,6.39,6.39,0,0,0,.2-1.94v-2.32a5.7,5.7,0,0,1-4.76,2.58,5.86,5.86,0,0,1-5.08-2.71,9.23,9.23,0,0,1-1.47-5.34,8.8,8.8,0,0,1,1.92-6.11,6.22,6.22,0,0,1,4.79-2.11,5.82,5.82,0,0,1,4.87,2.59V143h3.94v14.28a14.22,14.22,0,0,1-.47,4.21,5.08,5.08,0,0,1-1.3,2.18,5.73,5.73,0,0,1-2.24,1.25,11.73,11.73,0,0,1-3.54.45c-2.7,0-4.61-.47-5.74-1.39a4.33,4.33,0,0,1-1.69-3.51C70.74,160.31,70.74,160.14,70.75,159.94Zm3.76-9.33a5.75,5.75,0,0,0,1,3.7,3,3,0,0,0,2.42,1.18,3.34,3.34,0,0,0,2.61-1.21,5.23,5.23,0,0,0,1.06-3.57,5.62,5.62,0,0,0-1-3.67,3.24,3.24,0,0,0-2.58-1.2,3.11,3.11,0,0,0-2.5,1.18A5.53,5.53,0,0,0,74.51,150.61Z"/><path class="cls-3" d="M93,147.83l-3.82-.69a6,6,0,0,1,2.22-3.41,8.09,8.09,0,0,1,4.67-1.11,10,10,0,0,1,4.2.67,4.2,4.2,0,0,1,1.94,1.69,8.75,8.75,0,0,1,.56,3.77l0,4.91a16.35,16.35,0,0,0,.21,3.09,8.72,8.72,0,0,0,.75,2.14H99.55c-.11-.28-.25-.69-.41-1.24-.07-.25-.12-.42-.15-.5a7.66,7.66,0,0,1-2.3,1.57,6.64,6.64,0,0,1-2.63.53,5.48,5.48,0,0,1-3.87-1.33,4.46,4.46,0,0,1-1.41-3.38,4.51,4.51,0,0,1,.64-2.4,4.29,4.29,0,0,1,1.8-1.62,14.43,14.43,0,0,1,3.35-1,23,23,0,0,0,4.09-1v-.42a2.17,2.17,0,0,0-.6-1.73,3.54,3.54,0,0,0-2.26-.52,3,3,0,0,0-1.75.44A3.09,3.09,0,0,0,93,147.83Zm5.63,3.42c-.54.18-1.39.39-2.56.64a7.64,7.64,0,0,0-2.29.74,1.74,1.74,0,0,0-.82,1.48,2.06,2.06,0,0,0,.65,1.53,2.3,2.3,0,0,0,1.68.64,3.61,3.61,0,0,0,2.17-.75,2.64,2.64,0,0,0,1-1.39,8.35,8.35,0,0,0,.16-2Z"/><path class="cls-3" d="M106.56,159.94l4.81.58a1.65,1.65,0,0,0,.55,1.16,3.17,3.17,0,0,0,1.89.45,4.88,4.88,0,0,0,2.47-.5,2,2,0,0,0,.84-1.06,6.48,6.48,0,0,0,.19-1.94v-2.32a5.67,5.67,0,0,1-4.76,2.58,5.86,5.86,0,0,1-5.08-2.71,9.23,9.23,0,0,1-1.47-5.34,8.8,8.8,0,0,1,1.93-6.11,6.2,6.2,0,0,1,4.79-2.11,5.8,5.8,0,0,1,4.86,2.59V143h3.94v14.28a14.28,14.28,0,0,1-.46,4.21,5.18,5.18,0,0,1-1.3,2.18,5.8,5.8,0,0,1-2.24,1.25,11.85,11.85,0,0,1-3.55.45c-2.69,0-4.61-.47-5.73-1.39a4.34,4.34,0,0,1-1.7-3.51C106.54,160.31,106.55,160.14,106.56,159.94Zm3.76-9.33a5.75,5.75,0,0,0,1,3.7,3,3,0,0,0,2.42,1.18,3.34,3.34,0,0,0,2.61-1.21,5.28,5.28,0,0,0,1.06-3.57,5.56,5.56,0,0,0-1-3.67,3.24,3.24,0,0,0-2.58-1.2A3.08,3.08,0,0,0,111.3,147,5.53,5.53,0,0,0,110.32,150.61Z"/><path class="cls-3" d="M134.9,153.83l4.2.7a6.82,6.82,0,0,1-2.56,3.51,7.45,7.45,0,0,1-4.36,1.21q-4.16,0-6.15-2.71a9.19,9.19,0,0,1-1.57-5.49,8.77,8.77,0,0,1,2.07-6.19,6.82,6.82,0,0,1,5.23-2.24,7.07,7.07,0,0,1,5.6,2.34c1.37,1.57,2,4,2,7.19H128.78a4.23,4.23,0,0,0,1,2.91,3.17,3.17,0,0,0,2.43,1,2.57,2.57,0,0,0,1.66-.54A3.34,3.34,0,0,0,134.9,153.83Zm.24-4.26a4.06,4.06,0,0,0-.94-2.78,2.92,2.92,0,0,0-2.19-.95,3,3,0,0,0-2.28,1,3.93,3.93,0,0,0-.88,2.73Z"/><path class="cls-3" d="M151.71,165.35v-28.8h3.34v28.8Z"/><path class="cls-4" d="M168.55,158.89v-22h7.57a18.45,18.45,0,0,1,3.91.31,7.59,7.59,0,0,1,3.22,1.57,9,9,0,0,1,2.6,3.76,14.8,14.8,0,0,1,.86,5.22,15.28,15.28,0,0,1-.59,4.43,10.94,10.94,0,0,1-1.49,3.2,7.38,7.38,0,0,1-4.63,3.09,14.89,14.89,0,0,1-3.52.38Zm2.91-2.59h4.69a11.3,11.3,0,0,0,3.4-.41,4.77,4.77,0,0,0,2-1.14,6.92,6.92,0,0,0,1.62-2.77,13.81,13.81,0,0,0,.57-4.24,10.25,10.25,0,0,0-1.13-5.29,5.64,5.64,0,0,0-2.75-2.48,11.34,11.34,0,0,0-3.76-.45h-4.61Z"/><path class="cls-4" d="M190.38,140v-3.1h2.69V140Zm0,18.86V143h2.69v15.91Z"/><path class="cls-4" d="M196.69,160.21l2.62.39a2.5,2.5,0,0,0,.91,1.77,4.55,4.55,0,0,0,2.74.74,4.88,4.88,0,0,0,2.89-.74,3.69,3.69,0,0,0,1.38-2.1,17.05,17.05,0,0,0,.2-3.46,5.55,5.55,0,0,1-4.41,2.08,6,6,0,0,1-5.08-2.37,9.17,9.17,0,0,1-1.79-5.68,10.59,10.59,0,0,1,.82-4.2,6.63,6.63,0,0,1,2.39-3,6.44,6.44,0,0,1,3.68-1,5.69,5.69,0,0,1,4.64,2.28V143h2.49v13.75a13,13,0,0,1-.76,5.27,5.51,5.51,0,0,1-2.4,2.45,8.25,8.25,0,0,1-4,.9,7.64,7.64,0,0,1-4.6-1.28A4.33,4.33,0,0,1,196.69,160.21Zm2.23-9.56a6.9,6.9,0,0,0,1.24,4.57,4.1,4.1,0,0,0,6.23,0,6.69,6.69,0,0,0,1.26-4.49,6.56,6.56,0,0,0-1.29-4.41,4.05,4.05,0,0,0-3.13-1.48,3.88,3.88,0,0,0-3,1.46A6.5,6.5,0,0,0,198.92,150.65Z"/><path class="cls-4" d="M214.26,140v-3.1H217V140Zm0,18.86V143H217v15.91Z"/><path class="cls-4" d="M227,156.48l.39,2.38a10,10,0,0,1-2,.24,4.61,4.61,0,0,1-2.28-.47,2.53,2.53,0,0,1-1.14-1.22,9.59,9.59,0,0,1-.33-3.18v-9.15h-2V143h2V139l2.69-1.62V143H227v2.1h-2.71v9.3a4.54,4.54,0,0,0,.14,1.48,1.13,1.13,0,0,0,.46.53,1.8,1.8,0,0,0,.92.19A8.71,8.71,0,0,0,227,156.48Z"/><path class="cls-4" d="M240,156.93a10,10,0,0,1-2.89,1.79,8.28,8.28,0,0,1-3,.53,5.8,5.8,0,0,1-4-1.28,4.24,4.24,0,0,1-1.41-3.27,4.41,4.41,0,0,1,.53-2.14,4.46,4.46,0,0,1,1.4-1.55,6.48,6.48,0,0,1,1.94-.88,18.55,18.55,0,0,1,2.39-.41,24.61,24.61,0,0,0,4.81-.93c0-.37,0-.6,0-.7a3,3,0,0,0-.77-2.32,4.5,4.5,0,0,0-3.07-.92,4.73,4.73,0,0,0-2.81.67,4.08,4.08,0,0,0-1.34,2.36l-2.63-.36a6.35,6.35,0,0,1,1.18-2.73,5.18,5.18,0,0,1,2.38-1.61,10.73,10.73,0,0,1,3.61-.56,9.54,9.54,0,0,1,3.31.48,4.31,4.31,0,0,1,1.87,1.21,4.19,4.19,0,0,1,.84,1.83,15,15,0,0,1,.14,2.49v3.59a39.39,39.39,0,0,0,.17,4.76,6.16,6.16,0,0,0,.68,1.91h-2.81A5.7,5.7,0,0,1,240,156.93Zm-.23-6a19.84,19.84,0,0,1-4.4,1,10,10,0,0,0-2.35.54,2.4,2.4,0,0,0-1.07.88,2.28,2.28,0,0,0-.37,1.28,2.31,2.31,0,0,0,.81,1.8,3.52,3.52,0,0,0,2.39.72,5.57,5.57,0,0,0,2.77-.68,4.25,4.25,0,0,0,1.79-1.87,6.53,6.53,0,0,0,.43-2.7Z"/><path class="cls-4" d="M246.59,158.89v-22h2.69v22Z"/><path class="cls-4" d="M278,151.19l2.91.73a9.78,9.78,0,0,1-3.29,5.46,9,9,0,0,1-5.8,1.88,10.47,10.47,0,0,1-5.78-1.44,9,9,0,0,1-3.38-4.19,14.85,14.85,0,0,1-1.17-5.89,13,13,0,0,1,1.31-6,9,9,0,0,1,3.74-3.88,10.8,10.8,0,0,1,5.32-1.33,9,9,0,0,1,5.54,1.68,8.72,8.72,0,0,1,3.14,4.72l-2.87.67a6.81,6.81,0,0,0-2.21-3.49A5.91,5.91,0,0,0,271.8,139a7.07,7.07,0,0,0-4.23,1.21,6.45,6.45,0,0,0-2.39,3.26,13.1,13.1,0,0,0-.69,4.22,13.25,13.25,0,0,0,.82,4.89,6.06,6.06,0,0,0,2.54,3.12,7.09,7.09,0,0,0,3.73,1,6.25,6.25,0,0,0,4.13-1.41A7.2,7.2,0,0,0,278,151.19Z"/><path class="cls-4" d="M283.14,150.93q0-4.41,2.46-6.54a7.4,7.4,0,0,1,5-1.77,7.16,7.16,0,0,1,5.37,2.15,8.2,8.2,0,0,1,2.08,5.94,10.56,10.56,0,0,1-.92,4.83,6.61,6.61,0,0,1-2.68,2.74,8,8,0,0,1-3.85,1,7.15,7.15,0,0,1-5.4-2.14A8.59,8.59,0,0,1,283.14,150.93Zm2.77,0a6.77,6.77,0,0,0,1.34,4.58,4.43,4.43,0,0,0,6.69,0,6.91,6.91,0,0,0,1.34-4.66,6.61,6.61,0,0,0-1.34-4.47,4.44,4.44,0,0,0-6.69,0A6.71,6.71,0,0,0,285.91,150.93Z"/><path class="cls-4" d="M301.21,158.89V143h2.43v2.26a5.69,5.69,0,0,1,5.06-2.62,6.51,6.51,0,0,1,2.64.52,4.09,4.09,0,0,1,1.81,1.35,5.23,5.23,0,0,1,.84,2,15.31,15.31,0,0,1,.15,2.62v9.78h-2.7v-9.68a7.23,7.23,0,0,0-.31-2.46,2.64,2.64,0,0,0-1.12-1.31,3.58,3.58,0,0,0-1.88-.48,4.34,4.34,0,0,0-3,1.09c-.84.73-1.25,2.11-1.25,4.15v8.69Z"/><path class="cls-4" d="M328.66,153.06l2.65.35a6.86,6.86,0,0,1-2.23,4.29,6.49,6.49,0,0,1-4.39,1.55,6.84,6.84,0,0,1-5.26-2.14,8.67,8.67,0,0,1-2-6.12,11,11,0,0,1,.85-4.5,6,6,0,0,1,2.6-2.9,7.67,7.67,0,0,1,3.8-1,6.62,6.62,0,0,1,4.24,1.31,6,6,0,0,1,2.11,3.72l-2.62.41a4.32,4.32,0,0,0-1.33-2.41,3.42,3.42,0,0,0-2.3-.81,4.18,4.18,0,0,0-3.31,1.46,7,7,0,0,0-1.27,4.62,7.16,7.16,0,0,0,1.23,4.66,4,4,0,0,0,3.21,1.45,3.78,3.78,0,0,0,2.65-1A4.84,4.84,0,0,0,328.66,153.06Z"/><path class="cls-4" d="M333.63,140v-3.1h2.7V140Zm0,18.86V143h2.7v15.91Z"/><path class="cls-4" d="M351.32,153.77l2.79.34a6.84,6.84,0,0,1-2.44,3.79,7.35,7.35,0,0,1-4.56,1.35,7.27,7.27,0,0,1-5.53-2.15,8.36,8.36,0,0,1-2.05-6,8.78,8.78,0,0,1,2.07-6.23,7,7,0,0,1,5.36-2.22,6.81,6.81,0,0,1,5.22,2.17,8.68,8.68,0,0,1,2,6.11c0,.16,0,.4,0,.72H342.32a6.12,6.12,0,0,0,1.48,4,4.42,4.42,0,0,0,3.33,1.39,4.12,4.12,0,0,0,2.53-.78A5.19,5.19,0,0,0,351.32,153.77Zm-8.85-4.36h8.88a5.35,5.35,0,0,0-1-3,4.13,4.13,0,0,0-3.34-1.56,4.26,4.26,0,0,0-3.12,1.24A4.9,4.9,0,0,0,342.47,149.41Z"/><path class="cls-4" d="M357.46,158.89V143h2.43v2.41a6.5,6.5,0,0,1,1.72-2.23,3,3,0,0,1,1.73-.54,5.25,5.25,0,0,1,2.77.87l-.93,2.5a3.86,3.86,0,0,0-2-.58,2.54,2.54,0,0,0-1.59.53,2.88,2.88,0,0,0-1,1.47,10.52,10.52,0,0,0-.45,3.15v8.33Z"/><path class="cls-4" d="M367.22,160.21l2.62.39a2.5,2.5,0,0,0,.91,1.77,4.57,4.57,0,0,0,2.74.74,4.91,4.91,0,0,0,2.9-.74,3.73,3.73,0,0,0,1.37-2.1,17.05,17.05,0,0,0,.2-3.46,5.55,5.55,0,0,1-4.41,2.08,6,6,0,0,1-5.07-2.37,9.11,9.11,0,0,1-1.8-5.68,10.59,10.59,0,0,1,.82-4.2,6.63,6.63,0,0,1,2.39-3,6.44,6.44,0,0,1,3.68-1,5.69,5.69,0,0,1,4.64,2.28V143h2.49v13.75a13,13,0,0,1-.76,5.27,5.54,5.54,0,0,1-2.39,2.45,8.32,8.32,0,0,1-4,.9,7.64,7.64,0,0,1-4.6-1.28A4.33,4.33,0,0,1,367.22,160.21Zm2.23-9.56a6.9,6.9,0,0,0,1.24,4.57,4.1,4.1,0,0,0,6.23,0,6.69,6.69,0,0,0,1.26-4.49,6.56,6.56,0,0,0-1.29-4.41,4.05,4.05,0,0,0-3.13-1.48,3.91,3.91,0,0,0-3.05,1.46A6.5,6.5,0,0,0,369.45,150.65Z"/><path class="cls-4" d="M395.67,153.77l2.78.34A6.79,6.79,0,0,1,396,157.9a8.27,8.27,0,0,1-10.09-.8,8.4,8.4,0,0,1-2-6,8.77,8.77,0,0,1,2.06-6.23,7,7,0,0,1,5.37-2.22,6.8,6.8,0,0,1,5.21,2.17,8.63,8.63,0,0,1,2,6.11c0,.16,0,.4,0,.72H386.66a6.12,6.12,0,0,0,1.49,4,4.38,4.38,0,0,0,3.32,1.39,4.12,4.12,0,0,0,2.53-.78A5.2,5.2,0,0,0,395.67,153.77Zm-8.86-4.36h8.89a5.35,5.35,0,0,0-1-3,4.14,4.14,0,0,0-3.34-1.56,4.3,4.3,0,0,0-3.13,1.24A5,5,0,0,0,386.81,149.41Z"/></g></g></svg>