<svg xmlns="http://www.w3.org/2000/svg" viewBox="0 0 199.51 15.07"><defs><style>.cls-1{fill:#828282;}.cls-2{fill:#fcce0d;}</style></defs><title>ins-dc-icon</title><g id="Layer_2" data-name="Layer 2"><g id="Layer_1-2" data-name="Layer 1"><path d="M95.74,14.83V2.73h1.4v12.1Z"/><path class="cls-1" d="M102.82,12.12V2.88H106a7.4,7.4,0,0,1,1.64.14,3.15,3.15,0,0,1,1.36.66,3.77,3.77,0,0,1,1.09,1.57,6.31,6.31,0,0,1,.36,2.2,6.56,6.56,0,0,1-.24,1.86,4.85,4.85,0,0,1-.63,1.35,3.71,3.71,0,0,1-.84.84,3.74,3.74,0,0,1-1.11.46,6.51,6.51,0,0,1-1.48.16ZM104,11h2a4.84,4.84,0,0,0,1.43-.17,2.14,2.14,0,0,0,.83-.48A2.9,2.9,0,0,0,109,9.21a5.76,5.76,0,0,0,.24-1.78,4.38,4.38,0,0,0-.47-2.23,2.49,2.49,0,0,0-1.16-1A4.93,4.93,0,0,0,106,4H104Z"/><path class="cls-1" d="M112,4.19V2.88h1.14V4.19Zm0,7.93V5.43h1.14v6.69Z"/><path class="cls-1" d="M114.65,12.67l1.1.16a1,1,0,0,0,.38.75,1.89,1.89,0,0,0,1.15.31,2,2,0,0,0,1.22-.31,1.55,1.55,0,0,0,.58-.88,6.82,6.82,0,0,0,.08-1.46,2.31,2.31,0,0,1-1.85.88,2.5,2.5,0,0,1-2.13-1,3.8,3.8,0,0,1-.76-2.39A4.29,4.29,0,0,1,114.77,7a2.73,2.73,0,0,1,1-1.25,2.66,2.66,0,0,1,1.55-.44,2.41,2.41,0,0,1,2,1v-.8h1v5.78a5.52,5.52,0,0,1-.31,2.21,2.34,2.34,0,0,1-1,1,3.42,3.42,0,0,1-1.7.38,3.18,3.18,0,0,1-1.93-.54A1.82,1.82,0,0,1,114.65,12.67Zm.93-4a2.88,2.88,0,0,0,.53,1.92,1.64,1.64,0,0,0,1.31.61,1.69,1.69,0,0,0,1.31-.6,2.82,2.82,0,0,0,.53-1.89,2.74,2.74,0,0,0-.55-1.85,1.66,1.66,0,0,0-1.31-.62,1.64,1.64,0,0,0-1.29.61A2.74,2.74,0,0,0,115.58,8.65Z"/><path class="cls-1" d="M122,4.19V2.88h1.14V4.19Zm0,7.93V5.43h1.14v6.69Z"/><path class="cls-1" d="M127.37,11.1l.16,1a4,4,0,0,1-.85.11,2,2,0,0,1-1-.2,1.07,1.07,0,0,1-.48-.51,4.12,4.12,0,0,1-.14-1.34V6.31h-.83V5.43h.83V3.77l1.13-.68V5.43h1.14v.88h-1.14v3.91a2,2,0,0,0,.06.62.48.48,0,0,0,.19.23.81.81,0,0,0,.39.08A3.79,3.79,0,0,0,127.37,11.1Z"/><path class="cls-1" d="M132.84,11.29a4.21,4.21,0,0,1-1.21.76,3.46,3.46,0,0,1-1.25.22,2.4,2.4,0,0,1-1.69-.54,1.77,1.77,0,0,1-.6-1.38,1.82,1.82,0,0,1,.23-.89,2,2,0,0,1,.58-.66,3.06,3.06,0,0,1,.82-.37,8.91,8.91,0,0,1,1-.17,10.55,10.55,0,0,0,2-.39V7.58a1.23,1.23,0,0,0-.32-1,1.88,1.88,0,0,0-1.29-.38A2,2,0,0,0,130,6.5a1.68,1.68,0,0,0-.56,1l-1.11-.15a2.71,2.71,0,0,1,.5-1.15,2.2,2.2,0,0,1,1-.68,4.63,4.63,0,0,1,1.52-.23,3.89,3.89,0,0,1,1.39.2,1.71,1.71,0,0,1,.78.51,1.78,1.78,0,0,1,.36.77,6.28,6.28,0,0,1,0,1V9.31a15,15,0,0,0,.08,2,2.69,2.69,0,0,0,.28.81h-1.18A2.52,2.52,0,0,1,132.84,11.29Zm-.09-2.53a8.32,8.32,0,0,1-1.85.43,4,4,0,0,0-1,.23.91.91,0,0,0-.45.36,1,1,0,0,0,.19,1.3,1.46,1.46,0,0,0,1,.3,2.26,2.26,0,0,0,1.17-.29,1.76,1.76,0,0,0,.75-.78,2.77,2.77,0,0,0,.18-1.13Z"/><path class="cls-1" d="M135.63,12.12V2.88h1.13v9.24Z"/><path class="cls-1" d="M148.83,8.88l1.23.31a4.09,4.09,0,0,1-1.39,2.29,3.78,3.78,0,0,1-2.44.79,4.4,4.4,0,0,1-2.42-.6,3.86,3.86,0,0,1-1.43-1.76,6.42,6.42,0,0,1-.49-2.48,5.5,5.5,0,0,1,.55-2.51A3.89,3.89,0,0,1,144,3.28a4.62,4.62,0,0,1,2.24-.55,3.77,3.77,0,0,1,2.33.7,3.67,3.67,0,0,1,1.32,2l-1.2.28a2.91,2.91,0,0,0-.94-1.47,2.44,2.44,0,0,0-1.53-.46,3,3,0,0,0-1.78.51,2.74,2.74,0,0,0-1,1.37,5.61,5.61,0,0,0-.29,1.77,5.59,5.59,0,0,0,.35,2.06,2.54,2.54,0,0,0,1.06,1.31,3,3,0,0,0,1.57.44,2.64,2.64,0,0,0,1.74-.59A3,3,0,0,0,148.83,8.88Z"/><path class="cls-1" d="M151,8.77A3.44,3.44,0,0,1,152,6a3.06,3.06,0,0,1,2.1-.74,3,3,0,0,1,2.26.9,3.46,3.46,0,0,1,.87,2.5,4.39,4.39,0,0,1-.39,2,2.7,2.7,0,0,1-1.12,1.15,3.33,3.33,0,0,1-1.62.41,3,3,0,0,1-2.27-.9A3.6,3.6,0,0,1,151,8.77Zm1.16,0a2.89,2.89,0,0,0,.56,1.93,1.86,1.86,0,0,0,2.82,0,2.92,2.92,0,0,0,.56-2,2.76,2.76,0,0,0-.57-1.88,1.88,1.88,0,0,0-2.81,0A2.88,2.88,0,0,0,152.16,8.77Z"/><path class="cls-1" d="M158.59,12.12V5.43h1v1a2.39,2.39,0,0,1,2.13-1.1,2.89,2.89,0,0,1,1.11.21,1.83,1.83,0,0,1,.76.57,2.11,2.11,0,0,1,.35.84A5.58,5.58,0,0,1,164,8v4.12h-1.14V8.05a3.06,3.06,0,0,0-.13-1,1.09,1.09,0,0,0-.47-.55,1.54,1.54,0,0,0-.79-.2,1.82,1.82,0,0,0-1.25.46,2.27,2.27,0,0,0-.53,1.74v3.66Z"/><path class="cls-1" d="M170.13,9.67l1.11.14a2.91,2.91,0,0,1-.93,1.81,2.75,2.75,0,0,1-1.85.65,2.89,2.89,0,0,1-2.21-.9,3.66,3.66,0,0,1-.83-2.57,4.67,4.67,0,0,1,.36-1.9,2.5,2.5,0,0,1,1.09-1.22,3.25,3.25,0,0,1,1.6-.4,2.76,2.76,0,0,1,1.78.55,2.55,2.55,0,0,1,.89,1.56l-1.1.17a1.9,1.9,0,0,0-.56-1,1.44,1.44,0,0,0-1-.34,1.76,1.76,0,0,0-1.39.61,2.91,2.91,0,0,0-.54,1.95,3,3,0,0,0,.52,2,1.69,1.69,0,0,0,1.35.61,1.58,1.58,0,0,0,1.11-.41A2.06,2.06,0,0,0,170.13,9.67Z"/><path class="cls-1" d="M172.22,4.19V2.88h1.13V4.19Zm0,7.93V5.43h1.13v6.69Z"/><path class="cls-1" d="M179.66,10l1.17.15a2.84,2.84,0,0,1-1,1.59,3.08,3.08,0,0,1-1.92.57,3.05,3.05,0,0,1-2.33-.91,3.52,3.52,0,0,1-.86-2.53,3.68,3.68,0,0,1,.87-2.62,3,3,0,0,1,2.26-.93,2.86,2.86,0,0,1,2.19.91,3.62,3.62,0,0,1,.85,2.57c0,.07,0,.17,0,.3h-5a2.58,2.58,0,0,0,.63,1.69,1.86,1.86,0,0,0,1.4.59A1.72,1.72,0,0,0,179,11,2.14,2.14,0,0,0,179.66,10Zm-3.72-1.83h3.73a2.27,2.27,0,0,0-.43-1.27,1.74,1.74,0,0,0-1.4-.65,1.78,1.78,0,0,0-1.31.52A2.07,2.07,0,0,0,175.94,8.13Z"/><path class="cls-1" d="M182.24,12.12V5.43h1v1A2.93,2.93,0,0,1,184,5.5a1.28,1.28,0,0,1,.73-.22,2.27,2.27,0,0,1,1.17.36l-.39,1.05a1.68,1.68,0,0,0-.84-.24,1.05,1.05,0,0,0-.66.22,1.27,1.27,0,0,0-.43.62,4.7,4.7,0,0,0-.18,1.33v3.5Z"/><path class="cls-1" d="M186.34,12.67l1.1.16a1.07,1.07,0,0,0,.39.75,1.87,1.87,0,0,0,1.15.31,2,2,0,0,0,1.22-.31,1.6,1.6,0,0,0,.58-.88,7.59,7.59,0,0,0,.08-1.46,2.32,2.32,0,0,1-1.85.88,2.53,2.53,0,0,1-2.14-1,3.85,3.85,0,0,1-.75-2.39A4.45,4.45,0,0,1,186.46,7a2.74,2.74,0,0,1,1-1.25A2.63,2.63,0,0,1,189,5.28a2.44,2.44,0,0,1,2,1v-.8h1v5.78a5.48,5.48,0,0,1-.32,2.21,2.28,2.28,0,0,1-1,1,3.38,3.38,0,0,1-1.69.38,3.23,3.23,0,0,1-1.94-.54A1.84,1.84,0,0,1,186.34,12.67Zm.94-4a2.88,2.88,0,0,0,.52,1.92,1.65,1.65,0,0,0,1.31.61,1.67,1.67,0,0,0,1.31-.6A2.77,2.77,0,0,0,191,8.69a2.74,2.74,0,0,0-.54-1.85,1.68,1.68,0,0,0-1.32-.62,1.62,1.62,0,0,0-1.28.61A2.74,2.74,0,0,0,187.28,8.65Z"/><path class="cls-1" d="M198.3,10l1.17.15a2.84,2.84,0,0,1-1,1.59,3.08,3.08,0,0,1-1.92.57,3,3,0,0,1-2.32-.91,3.48,3.48,0,0,1-.86-2.53,3.68,3.68,0,0,1,.87-2.62,2.94,2.94,0,0,1,2.25-.93,2.83,2.83,0,0,1,2.19.91,3.62,3.62,0,0,1,.85,2.57v.3h-5a2.57,2.57,0,0,0,.62,1.69,1.87,1.87,0,0,0,1.4.59A1.7,1.7,0,0,0,197.6,11,2.14,2.14,0,0,0,198.3,10Zm-3.72-1.83h3.74a2.35,2.35,0,0,0-.43-1.27,1.76,1.76,0,0,0-1.41-.65,1.78,1.78,0,0,0-1.31.52A2.12,2.12,0,0,0,194.58,8.13Z"/><path class="cls-2" d="M3.73,15.07c-.29-.11-.33-.17-.33-.49v-.05a2.24,2.24,0,0,0,0-.74c-.09-.21-.35-.34-.54-.49C2,12.6,1.2,11.9.38,11.22A1,1,0,0,1,0,10.34c.07-.87.13-1.75.19-2.63S.32,5.88.39,5a.77.77,0,0,1,.8-.71A.75.75,0,0,1,1.94,5l.27,3.54c0,.41.07.82.09,1.23a.31.31,0,0,0,.17.3c1.16.71,2.3,1.44,3.46,2.14a.56.56,0,0,1,.29.53c0,.61,0,1.21,0,1.81,0,.33,0,.38-.33.5Z"/><path class="cls-2" d="M18.38,10.69a1.07,1.07,0,0,1-.39.5l-2.88,2.45a.3.3,0,0,0-.13.29c0,.23,0,.47,0,.7s-.13.39-.38.4h-2a.36.36,0,0,1-.38-.41v-2a.45.45,0,0,1,.24-.4l3.51-2.17a.3.3,0,0,0,.16-.27l.27-3.55c0-.45.06-.89.1-1.33a.76.76,0,0,1,.76-.67.74.74,0,0,1,.75.68c.08,1,.15,2,.22,2.93l.15,2.2a.7.7,0,0,0,0,.14Z"/><path class="cls-2" d="M5.33,8.38v.76c0,.34-.1.43-.44.43H3.72c-.3,0-.41-.1-.41-.4V5.63a2.47,2.47,0,0,1,.26-1.1C4.15,3.31,4.73,2.09,5.32.88A1.47,1.47,0,0,1,6.71,0h5a1.47,1.47,0,0,1,1.43.9c.57,1.2,1.15,2.39,1.73,3.58a2.77,2.77,0,0,1,.28,1.23V9.14c0,.34-.1.43-.44.44h-1.2c-.29,0-.38-.1-.39-.39v-.8Zm8.1-3.91a1.16,1.16,0,0,0-.06-.15c-.38-.8-.78-1.61-1.15-2.42a1.05,1.05,0,0,0-1.05-.68q-2,0-4,0a1,1,0,0,0-1,.65c-.37.81-.77,1.61-1.15,2.41,0,0,0,.11-.09.19Zm-.23,1a.91.91,0,1,0,0,1.82.91.91,0,0,0,0-1.82Zm-8,0a.91.91,0,1,0,.91.91A.9.9,0,0,0,5.22,5.44Z"/><path d="M24.65,2.84h2.77V12.4H24.65Z"/><path d="M29.2,5.41h2.39V6.54a2.53,2.53,0,0,1,.85-.94,2.58,2.58,0,0,1,1.45-.38,2.21,2.21,0,0,1,1.65.65,2.7,2.7,0,0,1,.64,2V12.4H33.79V8.35a1.37,1.37,0,0,0-.25-.89.94.94,0,0,0-.76-.29,1.2,1.2,0,0,0-.86.32,1.35,1.35,0,0,0-.33,1V12.4H29.2Z"/><path d="M40.39,12.56a3.92,3.92,0,0,1-2.33-.6,2.15,2.15,0,0,1-.88-1.78h2.21a1,1,0,0,0,.27.59,1,1,0,0,0,.71.2,1.11,1.11,0,0,0,.65-.15.52.52,0,0,0,.21-.43.42.42,0,0,0-.29-.38,4,4,0,0,0-1-.24,9.1,9.1,0,0,1-1.21-.25,2.35,2.35,0,0,1-.82-.42,1.57,1.57,0,0,1-.47-.64,2.4,2.4,0,0,1-.16-.94,2.07,2.07,0,0,1,.24-1,2.19,2.19,0,0,1,.66-.73,3,3,0,0,1,.95-.42,4.77,4.77,0,0,1,1.15-.14,5.42,5.42,0,0,1,1.18.12,2.66,2.66,0,0,1,.94.39,2,2,0,0,1,.65.69,2.7,2.7,0,0,1,.32,1.06H41.19A.87.87,0,0,0,40.92,7a1.22,1.22,0,0,0-1.21,0,.45.45,0,0,0-.2.39.39.39,0,0,0,.26.38,3.82,3.82,0,0,0,.91.2A9.3,9.3,0,0,1,42,8.15a2.88,2.88,0,0,1,.9.4,1.64,1.64,0,0,1,.53.65,2.27,2.27,0,0,1,.18,1A2.06,2.06,0,0,1,42.7,12,4,4,0,0,1,40.39,12.56Z"/><path d="M46.94,12.56a2.85,2.85,0,0,1-.94-.15,1.9,1.9,0,0,1-.73-.48,2.06,2.06,0,0,1-.5-.81A3.31,3.31,0,0,1,44.59,10V5.41H47V9.58a1.3,1.3,0,0,0,.25.88.89.89,0,0,0,.74.3,1.18,1.18,0,0,0,.87-.33,1.36,1.36,0,0,0,.32-1v-4h2.39v7H49.16V11.32a2.38,2.38,0,0,1-.81.89A2.54,2.54,0,0,1,46.94,12.56Z"/><path d="M53.08,5.41h2.39V6.8a2.35,2.35,0,0,1,.89-1.14,2.45,2.45,0,0,1,1.37-.35V7.55a3.06,3.06,0,0,0-1.68.33,1.29,1.29,0,0,0-.58,1.2V12.4H53.08Z"/><path d="M60.74,12.56a3.26,3.26,0,0,1-.9-.12,2.19,2.19,0,0,1-.75-.37,1.88,1.88,0,0,1-.53-.65,2.16,2.16,0,0,1-.19-1,1.86,1.86,0,0,1,1-1.76,5.89,5.89,0,0,1,2.73-.52h.67V8a1.57,1.57,0,0,0-.17-.81.81.81,0,0,0-.75-.3.88.88,0,0,0-.7.24,1.12,1.12,0,0,0-.25.58H58.64a2.47,2.47,0,0,1,.3-1.1,2.21,2.21,0,0,1,.7-.79,3,3,0,0,1,1-.47A5.44,5.44,0,0,1,62,5.22a5.22,5.22,0,0,1,1.3.15,3,3,0,0,1,1,.48,2.06,2.06,0,0,1,.63.82,2.92,2.92,0,0,1,.22,1.2V12.4H62.81v-.82a2.36,2.36,0,0,1-.74.69A2.65,2.65,0,0,1,60.74,12.56Zm.82-1.62a1.37,1.37,0,0,0,.85-.26.87.87,0,0,0,.34-.73V9.53h-.63a2.5,2.5,0,0,0-1,.16.61.61,0,0,0-.33.6.59.59,0,0,0,.2.48A.9.9,0,0,0,61.56,10.94Z"/><path d="M66.6,5.41H69V6.54a2.45,2.45,0,0,1,.85-.94,2.56,2.56,0,0,1,1.45-.38A2.24,2.24,0,0,1,73,5.87a2.74,2.74,0,0,1,.63,2V12.4H71.19V8.35A1.37,1.37,0,0,0,71,7.46a1,1,0,0,0-.76-.29,1.21,1.21,0,0,0-.87.32,1.4,1.4,0,0,0-.32,1V12.4H66.6Z"/><path d="M78.36,12.56a4.52,4.52,0,0,1-1.46-.23,3.25,3.25,0,0,1-1.17-.68A3.11,3.11,0,0,1,75,10.54,3.9,3.9,0,0,1,74.68,9V8.88A4,4,0,0,1,75,7.33a3.52,3.52,0,0,1,.81-1.15A3.36,3.36,0,0,1,77,5.47a4.05,4.05,0,0,1,1.45-.25,5.07,5.07,0,0,1,1.24.15,3.2,3.2,0,0,1,1.06.48,2.77,2.77,0,0,1,.77.89,3.35,3.35,0,0,1,.35,1.36H79.58a1.28,1.28,0,0,0-.34-.76,1.06,1.06,0,0,0-.78-.26,1.17,1.17,0,0,0-1,.45,2.15,2.15,0,0,0-.35,1.33V9a2.31,2.31,0,0,0,.35,1.39,1.36,1.36,0,0,0,1.86.17,1.41,1.41,0,0,0,.39-.87h2.15a3,3,0,0,1-.93,2.12A3.74,3.74,0,0,1,78.36,12.56Z"/><path d="M86.38,12.56a5,5,0,0,1-1.53-.23,3.42,3.42,0,0,1-1.19-.69,3.12,3.12,0,0,1-.79-1.12A3.73,3.73,0,0,1,82.58,9V8.88a3.84,3.84,0,0,1,.29-1.51,3.56,3.56,0,0,1,.81-1.16,3.33,3.33,0,0,1,1.2-.74,4.51,4.51,0,0,1,1.48-.25,4.41,4.41,0,0,1,1.37.21,3.46,3.46,0,0,1,1.13.66,3.15,3.15,0,0,1,.77,1.12,4.22,4.22,0,0,1,.29,1.62v.63H85a1.61,1.61,0,0,0,.43,1.07,1.39,1.39,0,0,0,1,.39,1.29,1.29,0,0,0,.87-.24,1,1,0,0,0,.34-.59h2.25a2.58,2.58,0,0,1-1.06,1.83A4.18,4.18,0,0,1,86.38,12.56Zm1.21-4.45a1.55,1.55,0,0,0-.33-1,1.19,1.19,0,0,0-.9-.33,1.24,1.24,0,0,0-.89.33,1.6,1.6,0,0,0-.44,1Z"/></g></g></svg>