<svg xmlns="http://www.w3.org/2000/svg" viewBox="0 0 233.98 38.74"><defs><style>.cls-1{fill:#fcce0d;}.cls-2{fill:#fff;}</style></defs><title>ins-icon</title><g id="Layer_2" data-name="Layer 2"><g id="Layer_1-2" data-name="Layer 1"><path class="cls-1" d="M9.6,38.74c-.75-.28-.87-.44-.87-1.25v-.14a5.18,5.18,0,0,0-.09-1.9c-.24-.52-.9-.86-1.38-1.27C5.17,32.4,3.09,30.59,1,28.84A2.44,2.44,0,0,1,0,26.6c.18-2.26.32-4.51.48-6.77s.32-4.72.51-7.08a2,2,0,0,1,2.06-1.83A2,2,0,0,1,5,12.9c.21,3,.45,6.07.68,9.11.08,1.06.17,2.11.23,3.17a.82.82,0,0,0,.44.77l8.9,5.51A1.4,1.4,0,0,1,16,32.81c0,1.56,0,3.11,0,4.66,0,.83-.09,1-.84,1.27Z"/><path class="cls-1" d="M47.25,27.49a2.84,2.84,0,0,1-1,1.28l-7.41,6.3a.84.84,0,0,0-.34.74q0,.9,0,1.8c0,.67-.32,1-1,1-1.74,0-3.47,0-5.21,0-.66,0-1-.36-1-1,0-1.71,0-3.41,0-5.12a1.13,1.13,0,0,1,.63-1c3-1.86,6-3.73,9-5.58a.82.82,0,0,0,.43-.69c.21-3.05.44-6.1.67-9.15.09-1.13.17-2.27.27-3.4a1.94,1.94,0,0,1,2-1.72,1.91,1.91,0,0,1,1.93,1.73c.2,2.51.37,5,.55,7.54.13,1.89.25,3.77.38,5.66a2.33,2.33,0,0,0,.08.36Z"/><path class="cls-1" d="M13.71,21.56V23.5c0,.87-.25,1.12-1.14,1.12h-3c-.79,0-1.07-.28-1.08-1.05,0-3,0-6.06,0-9.08a6.39,6.39,0,0,1,.67-2.85c1.51-3.12,3-6.26,4.52-9.37A3.76,3.76,0,0,1,17.26,0C21.51,0,25.75,0,30,0a3.79,3.79,0,0,1,3.68,2.3c1.46,3.08,2.95,6.15,4.43,9.21a7.08,7.08,0,0,1,.73,3.16c0,2.94,0,5.87,0,8.81,0,.88-.24,1.13-1.12,1.13H34.61c-.74,0-1-.26-1-1V21.56ZM34.53,11.48c-.06-.14-.09-.26-.14-.36-1-2.08-2-4.14-3-6.24a2.69,2.69,0,0,0-2.7-1.74c-3.39,0-6.79,0-10.19,0A2.55,2.55,0,0,0,16,4.81C15,6.89,14,8.94,13,11c-.07.14-.13.29-.21.48ZM33.94,14a2.34,2.34,0,1,0,0,4.67,2.34,2.34,0,0,0,0-4.67ZM13.43,14a2.34,2.34,0,1,0,0,4.67,2.34,2.34,0,1,0,0-4.67Z"/><path class="cls-2" d="M70,6.63h3.13V32.37H70Z"/><path class="cls-2" d="M80.05,13.54h3v3a5.84,5.84,0,0,1,2.18-2.32,7,7,0,0,1,3.87-1,8.43,8.43,0,0,1,2.66.41A5.15,5.15,0,0,1,93.86,15a6.2,6.2,0,0,1,1.36,2.35,10.86,10.86,0,0,1,.49,3.5V32.37h-3V20.55a5.22,5.22,0,0,0-1.08-3.65,4.38,4.38,0,0,0-3.35-1.16,6,6,0,0,0-2,.33,4.69,4.69,0,0,0-1.68,1,4.85,4.85,0,0,0-1.15,1.63A5.46,5.46,0,0,0,83,20.91V32.37h-3Z"/><path class="cls-2" d="M107.84,32.7a8,8,0,0,1-5.31-1.62,6,6,0,0,1-2.07-4.54h2.92a4.19,4.19,0,0,0,1.17,2.66,4.51,4.51,0,0,0,3.25,1,5.28,5.28,0,0,0,3.14-.74,2.64,2.64,0,0,0,1-2.24,2.26,2.26,0,0,0-1.1-2.11,10.26,10.26,0,0,0-3.29-1,19.7,19.7,0,0,1-3.1-.77,6.33,6.33,0,0,1-2-1.1,3.66,3.66,0,0,1-1.1-1.55,5.88,5.88,0,0,1-.35-2.12,4.53,4.53,0,0,1,.58-2.29A5.35,5.35,0,0,1,103,14.57a7.06,7.06,0,0,1,2.06-1,7.63,7.63,0,0,1,2.25-.34,10.53,10.53,0,0,1,2.41.27,5.73,5.73,0,0,1,2.07.93,5.35,5.35,0,0,1,1.53,1.7,6.59,6.59,0,0,1,.79,2.57h-2.88A3.68,3.68,0,0,0,110,16.44a4.42,4.42,0,0,0-2.72-.7,4.25,4.25,0,0,0-2.59.73,2.34,2.34,0,0,0-1,2,2.73,2.73,0,0,0,.19,1.09,2,2,0,0,0,.71.79,5,5,0,0,0,1.35.61,14.87,14.87,0,0,0,2.14.48c1,.19,1.85.4,2.66.63a7.44,7.44,0,0,1,2.11.93,4.17,4.17,0,0,1,1.37,1.55,5.51,5.51,0,0,1,.48,2.47A5.3,5.3,0,0,1,113,31.13,7.51,7.51,0,0,1,107.84,32.7Z"/><path class="cls-2" d="M126.09,32.7a8.49,8.49,0,0,1-2.61-.4A5.06,5.06,0,0,1,121.41,31,6.43,6.43,0,0,1,120,28.77a9.73,9.73,0,0,1-.5-3.31V13.54h3V25.37A5.27,5.27,0,0,0,123.59,29a4.28,4.28,0,0,0,3.29,1.16,5.83,5.83,0,0,0,2-.33,4.76,4.76,0,0,0,2.81-2.6,5.63,5.63,0,0,0,.43-2.24V13.54h3V32.37h-3v-3a5.87,5.87,0,0,1-2.18,2.33A6.86,6.86,0,0,1,126.09,32.7Z"/><path class="cls-2" d="M141.54,13.54h3v3.39a8.91,8.91,0,0,1,1-1.46,6.35,6.35,0,0,1,1.28-1.15,6.27,6.27,0,0,1,1.69-.78,8.76,8.76,0,0,1,2.24-.32V16a13.73,13.73,0,0,0-2.56.36,4.69,4.69,0,0,0-2,1A4.28,4.28,0,0,0,145,19.18a8,8,0,0,0-.44,2.86V32.37h-3Z"/><path class="cls-2" d="M160,32.7a8.9,8.9,0,0,1-2.45-.33,5.4,5.4,0,0,1-2-1,4.85,4.85,0,0,1-1.33-1.72,6,6,0,0,1-.48-2.49,4.56,4.56,0,0,1,.79-2.73,5.76,5.76,0,0,1,2.1-1.8,10.38,10.38,0,0,1,3-1,19.34,19.34,0,0,1,3.51-.31h2.7V20a4.6,4.6,0,0,0-.94-3.24,4.13,4.13,0,0,0-3.09-1q-3.9,0-4.32,3.35h-3a6.26,6.26,0,0,1,.81-2.74,5.78,5.78,0,0,1,1.69-1.82,6.9,6.9,0,0,1,2.3-1,11.11,11.11,0,0,1,2.65-.31,10.62,10.62,0,0,1,2.59.31,5.34,5.34,0,0,1,2.2,1.08,5.46,5.46,0,0,1,1.51,2.07A8.11,8.11,0,0,1,168.9,20V32.37h-3V30a7.15,7.15,0,0,1-2.41,2A7.7,7.7,0,0,1,160,32.7Zm.29-2.38a7.47,7.47,0,0,0,2.21-.31,5.16,5.16,0,0,0,1.77-.88,4.1,4.1,0,0,0,1.6-3.35V23.44h-2.59a16.28,16.28,0,0,0-2.61.2,7.35,7.35,0,0,0-2.09.63,3.46,3.46,0,0,0-1.37,1.14,3,3,0,0,0-.49,1.74,3.24,3.24,0,0,0,.8,2.32A3.66,3.66,0,0,0,160.33,30.32Z"/><path class="cls-2" d="M175.2,13.54h3v3a5.92,5.92,0,0,1,2.18-2.32,7,7,0,0,1,3.87-1,8.49,8.49,0,0,1,2.67.41A5.18,5.18,0,0,1,189,15a6.09,6.09,0,0,1,1.37,2.35,11.14,11.14,0,0,1,.49,3.5V32.37h-3V20.55a5.22,5.22,0,0,0-1.08-3.65,4.39,4.39,0,0,0-3.35-1.16,6.08,6.08,0,0,0-2,.33,4.64,4.64,0,0,0-1.67,1,4.71,4.71,0,0,0-1.15,1.63,5.46,5.46,0,0,0-.44,2.24V32.37h-3Z"/><path class="cls-2" d="M205,32.7a9.93,9.93,0,0,1-3.66-.67,8.42,8.42,0,0,1-2.91-1.91,8.85,8.85,0,0,1-2-3,10.62,10.62,0,0,1-.7-4v-.29a10.39,10.39,0,0,1,.72-3.94,9.15,9.15,0,0,1,2-3,9,9,0,0,1,6.46-2.66,11.4,11.4,0,0,1,2.87.36,7.69,7.69,0,0,1,2.48,1.13,6.63,6.63,0,0,1,1.85,2,7.67,7.67,0,0,1,1,3.06h-3a4.3,4.3,0,0,0-1.81-3.14,6.23,6.23,0,0,0-3.41-.93,5.61,5.61,0,0,0-4.3,1.92,6.78,6.78,0,0,0-1.28,2.24,8.9,8.9,0,0,0-.46,3v.29a7.27,7.27,0,0,0,1.71,5.24A5.91,5.91,0,0,0,205,30.18a6.49,6.49,0,0,0,1.93-.29,5.19,5.19,0,0,0,1.65-.86,4.62,4.62,0,0,0,1.23-1.43,4.94,4.94,0,0,0,.59-2h2.77a7.63,7.63,0,0,1-.81,2.83,7.16,7.16,0,0,1-1.74,2.25,8.3,8.3,0,0,1-2.52,1.48A8.87,8.87,0,0,1,205,32.7Z"/><path class="cls-2" d="M225.81,32.7a9.45,9.45,0,0,1-3.67-.69,8.51,8.51,0,0,1-2.88-1.92,8.38,8.38,0,0,1-1.89-3,10.9,10.9,0,0,1-.67-3.92v-.29a11.41,11.41,0,0,1,.65-3.91,9,9,0,0,1,1.82-3.06,8.16,8.16,0,0,1,2.79-2,8.84,8.84,0,0,1,3.56-.7,9.64,9.64,0,0,1,3.15.53,7.4,7.4,0,0,1,2.72,1.65,7.9,7.9,0,0,1,1.89,2.91,11.89,11.89,0,0,1,.7,4.34v1H219.8a7.42,7.42,0,0,0,1.62,4.87,5.62,5.62,0,0,0,4.43,1.69q4.43,0,5-3.21h3a6.23,6.23,0,0,1-2.67,4.28A9.44,9.44,0,0,1,225.81,32.7Zm5.11-11.56A5.89,5.89,0,0,0,229.28,17a5.49,5.49,0,0,0-3.76-1.25,5.09,5.09,0,0,0-3.76,1.45,6.87,6.87,0,0,0-1.85,3.95Z"/></g></g></svg>