<svg xmlns="http://www.w3.org/2000/svg" viewBox="0 0 205.21 37.69"><defs><style>.cls-1{fill:#fff;}.cls-2{fill:#fcce0d;}</style></defs><title>mortgage-top-logo</title><g id="Layer_2" data-name="Layer 2"><g id="Layer_1-2" data-name="Layer 1"><path class="cls-1" d="M63.25,30.42V5.69h4.92L74,23.2c.54,1.63.93,2.85,1.18,3.66q.42-1.35,1.32-4L82.45,5.69h4.4V30.42H83.7V9.72l-7.19,20.7h-3L66.4,9.37V30.42Z"/><path class="cls-1" d="M90.61,21.46q0-5,2.77-7.37a8.37,8.37,0,0,1,5.63-2,8,8,0,0,1,6,2.42,9.21,9.21,0,0,1,2.35,6.69,11.85,11.85,0,0,1-1,5.44,7.35,7.35,0,0,1-3,3.08A8.79,8.79,0,0,1,99,30.83a8.07,8.07,0,0,1-6.08-2.42C91.39,26.81,90.61,24.49,90.61,21.46Zm3.12,0a7.64,7.64,0,0,0,1.5,5.16,5,5,0,0,0,7.55,0,7.83,7.83,0,0,0,1.5-5.25,7.43,7.43,0,0,0-1.51-5,5,5,0,0,0-7.54,0A7.58,7.58,0,0,0,93.73,21.46Z"/><path class="cls-1" d="M110.92,30.42V12.51h2.74v2.71a7.26,7.26,0,0,1,1.93-2.51,3.34,3.34,0,0,1,2-.61,6,6,0,0,1,3.12,1l-1,2.82a4.31,4.31,0,0,0-2.22-.66,2.88,2.88,0,0,0-1.79.6,3.2,3.2,0,0,0-1.13,1.66A11.74,11.74,0,0,0,114,21v9.38Z"/><path class="cls-1" d="M129.09,27.71l.44,2.68a11.22,11.22,0,0,1-2.29.27,5.33,5.33,0,0,1-2.57-.52,3,3,0,0,1-1.28-1.38,10.79,10.79,0,0,1-.37-3.58V14.87h-2.23V12.51H123V8.07l3-1.82v6.26h3v2.36h-3V25.34A5.15,5.15,0,0,0,126.2,27a1.24,1.24,0,0,0,.52.59,2,2,0,0,0,1,.22A11.16,11.16,0,0,0,129.09,27.71Z"/><path class="cls-1" d="M131.51,31.91l3,.44a2.82,2.82,0,0,0,1,2,5.05,5.05,0,0,0,3.08.84,5.43,5.43,0,0,0,3.26-.84A4.14,4.14,0,0,0,143.38,32a19.13,19.13,0,0,0,.22-3.89,6.24,6.24,0,0,1-5,2.34,6.78,6.78,0,0,1-5.72-2.66,10.27,10.27,0,0,1-2-6.4,11.88,11.88,0,0,1,.93-4.73,7.45,7.45,0,0,1,2.69-3.35,7.22,7.22,0,0,1,4.14-1.18,6.43,6.43,0,0,1,5.23,2.57V12.51h2.8V28a14.64,14.64,0,0,1-.85,5.93,6.2,6.2,0,0,1-2.7,2.76,9.31,9.31,0,0,1-4.55,1,8.59,8.59,0,0,1-5.18-1.44A4.87,4.87,0,0,1,131.51,31.91ZM134,21.14q0,3.52,1.4,5.15a4.44,4.44,0,0,0,3.51,1.62,4.52,4.52,0,0,0,3.51-1.61c.94-1.08,1.42-2.76,1.42-5.06a7.38,7.38,0,0,0-1.46-5,4.54,4.54,0,0,0-3.52-1.67,4.37,4.37,0,0,0-3.44,1.65A7.27,7.27,0,0,0,134,21.14Z"/><path class="cls-1" d="M163,28.21a11.47,11.47,0,0,1-3.25,2,9.44,9.44,0,0,1-3.35.59,6.5,6.5,0,0,1-4.53-1.44,4.78,4.78,0,0,1-1.59-3.69,4.92,4.92,0,0,1,.6-2.41,5,5,0,0,1,1.57-1.74,7.37,7.37,0,0,1,2.18-1,22.44,22.44,0,0,1,2.7-.45,27.25,27.25,0,0,0,5.42-1.05c0-.41,0-.68,0-.79a3.34,3.34,0,0,0-.86-2.62,5.11,5.11,0,0,0-3.46-1,5.29,5.29,0,0,0-3.16.76A4.59,4.59,0,0,0,153.74,18l-3-.4a7.47,7.47,0,0,1,1.33-3.08,6,6,0,0,1,2.69-1.81,12,12,0,0,1,4.06-.63,10.74,10.74,0,0,1,3.73.54A4.86,4.86,0,0,1,164.69,14a4.84,4.84,0,0,1,.95,2.07,17.23,17.23,0,0,1,.15,2.8v4a43.18,43.18,0,0,0,.19,5.36,6.76,6.76,0,0,0,.77,2.15h-3.17A6.29,6.29,0,0,1,163,28.21Zm-.25-6.78a22.71,22.71,0,0,1-5,1.15,11.21,11.21,0,0,0-2.65.61,2.57,2.57,0,0,0-1.62,2.42,2.58,2.58,0,0,0,.92,2,4,4,0,0,0,2.69.81,6.27,6.27,0,0,0,3.12-.77,4.73,4.73,0,0,0,2-2.1,7.46,7.46,0,0,0,.49-3Z"/><path class="cls-1" d="M169.94,31.91l2.95.44a2.82,2.82,0,0,0,1,2,5.06,5.06,0,0,0,3.09.84,5.42,5.42,0,0,0,3.25-.84A4.14,4.14,0,0,0,181.81,32a19.13,19.13,0,0,0,.22-3.89,6.24,6.24,0,0,1-5,2.34,6.78,6.78,0,0,1-5.72-2.66,10.27,10.27,0,0,1-2-6.4,11.88,11.88,0,0,1,.93-4.73A7.45,7.45,0,0,1,173,13.28a7.22,7.22,0,0,1,4.14-1.18,6.43,6.43,0,0,1,5.23,2.57V12.51h2.8V28a14.64,14.64,0,0,1-.85,5.93,6.2,6.2,0,0,1-2.7,2.76,9.31,9.31,0,0,1-4.55,1,8.61,8.61,0,0,1-5.18-1.44A4.87,4.87,0,0,1,169.94,31.91Zm2.51-10.77q0,3.52,1.4,5.15a4.44,4.44,0,0,0,3.51,1.62,4.52,4.52,0,0,0,3.51-1.61c.94-1.08,1.42-2.76,1.42-5.06a7.38,7.38,0,0,0-1.46-5,4.54,4.54,0,0,0-3.52-1.67,4.37,4.37,0,0,0-3.44,1.65A7.27,7.27,0,0,0,172.45,21.14Z"/><path class="cls-1" d="M202,24.65l3.14.39a7.63,7.63,0,0,1-2.75,4.27,8.29,8.29,0,0,1-5.13,1.52A8.19,8.19,0,0,1,191,28.41a9.45,9.45,0,0,1-2.3-6.79q0-4.53,2.32-7a7.88,7.88,0,0,1,6-2.5,7.68,7.68,0,0,1,5.88,2.45,9.74,9.74,0,0,1,2.27,6.88c0,.18,0,.45,0,.81H191.83a6.91,6.91,0,0,0,1.67,4.52,5,5,0,0,0,3.75,1.57,4.62,4.62,0,0,0,2.85-.88A5.73,5.73,0,0,0,202,24.65Zm-10-4.91h10a6.14,6.14,0,0,0-1.15-3.39,4.65,4.65,0,0,0-3.76-1.75,4.79,4.79,0,0,0-3.52,1.4A5.53,5.53,0,0,0,192,19.74Z"/><path class="cls-2" d="M41.93,33.55v.34l-.06.24a1,1,0,0,1-.83.7H.86A1.08,1.08,0,0,1,0,34.1v-.34a1.13,1.13,0,0,1,1.19-.7c1.49,0,3,0,4.49,0H6V8.9a4,4,0,0,1,0-.6A4.08,4.08,0,0,1,9,4.91l.65-.13c0-.44,0-.87.07-1.31a3.89,3.89,0,0,1,3-3.34C13,.07,13.2,0,13.44,0H32.05l.19,0a3.36,3.36,0,0,1,1.44.44A4,4,0,0,1,35.81,4.2V33.07H41A.87.87,0,0,1,41.93,33.55Zm-7.72-.49V4.18a2.21,2.21,0,0,0-2.29-2.27h-18A2.21,2.21,0,0,0,11.6,4.2V33.06Zm-24.37,0V6.56a2.17,2.17,0,0,0-2,2.2V32.89s0,.11,0,.18h2Z"/><path class="cls-2" d="M21.14,21.72c0,.76.05,1.52,0,2.28a2.41,2.41,0,0,1-2.49,2.26,14.76,14.76,0,0,1-1.49,0A2.5,2.5,0,0,1,15,24.12a4,4,0,0,1,0-.59c0-1.21,0-2.41,0-3.62a2.42,2.42,0,0,1,1.4-2.25,1.94,1.94,0,0,1,.78-.22,13.87,13.87,0,0,1,2,0,2.34,2.34,0,0,1,2,2.36v1.89Zm-1.57,0h0V19.88a.66.66,0,0,0-.71-.72q-.66,0-1.32,0a.67.67,0,0,0-.72.73v3.6a.67.67,0,0,0,.73.73c.41,0,.81,0,1.22,0s.8-.24.8-.79Z"/><path class="cls-2" d="M21.14,9.68c0,.76.05,1.53,0,2.28a2.38,2.38,0,0,1-2.36,2.26c-.49,0-1,0-1.49,0A2.54,2.54,0,0,1,15,12.07a3.9,3.9,0,0,1,0-.59c0-1.2,0-2.4,0-3.6a2.42,2.42,0,0,1,1.19-2.14,2.25,2.25,0,0,1,.92-.32,11.65,11.65,0,0,1,2.13,0,2.34,2.34,0,0,1,2,2.44c0,.6,0,1.2,0,1.8Zm-1.57.13h0V8a.67.67,0,0,0-.73-.72H17.58a.69.69,0,0,0-.76.78v3.53a.68.68,0,0,0,.75.76h1.2c.55,0,.8-.25.8-.8Z"/><path class="cls-2" d="M30.43,9.84c0,.66,0,1.33,0,2A2.42,2.42,0,0,1,28,14.22c-.47,0-.95,0-1.42,0a2.52,2.52,0,0,1-2.37-2.42c0-1.34,0-2.69,0-4A2.41,2.41,0,0,1,26.7,5.39a12.14,12.14,0,0,1,1.6,0,2.5,2.5,0,0,1,2.12,2.3c0,.71,0,1.41,0,2.12Zm-1.72,0V8.05a.7.7,0,0,0-.77-.78H26.7A.67.67,0,0,0,26,8c0,1.21,0,2.41,0,3.62a.66.66,0,0,0,.73.73h1.22a.71.71,0,0,0,.8-.81Z"/><path class="cls-2" d="M30.43,21.88c0,.66,0,1.32,0,2a2.45,2.45,0,0,1-2.53,2.41,13.84,13.84,0,0,1-1.44,0,2.54,2.54,0,0,1-2.24-2.42c0-1.34,0-2.68,0-4a2.42,2.42,0,0,1,2.49-2.38,13,13,0,0,1,1.53,0,2.51,2.51,0,0,1,2.17,2.33c0,.7,0,1.41,0,2.11Zm-1.72-.16c0-.61,0-1.22,0-1.82a.67.67,0,0,0-.73-.74c-.43,0-.85,0-1.28,0a.65.65,0,0,0-.73.71c0,1.21,0,2.43,0,3.64a.66.66,0,0,0,.75.71c.39,0,.79,0,1.19,0a.7.7,0,0,0,.81-.79Z"/></g></g></svg>