<svg xmlns="http://www.w3.org/2000/svg" viewBox="0 0 190.16 14.8"><defs><style>.cls-1{fill:#828282;}.cls-2{fill:#fcce0d;}</style></defs><title>mortgage-logo-chat</title><g id="Layer_2" data-name="Layer 2"><g id="Layer_1-2" data-name="Layer 1"><path d="M24.56,12.09V2.85h2.79L29,9.15l1.66-6.3h2.8v9.24H31.74V4.82l-1.83,7.27H28.12L26.29,4.82v7.27Z"/><path d="M34.91,8.65a3.62,3.62,0,0,1,.43-1.71,3,3,0,0,1,1.23-1.26,3.66,3.66,0,0,1,1.78-.43,3.34,3.34,0,0,1,2.49,1,3.4,3.4,0,0,1,1,2.49,3.48,3.48,0,0,1-1,2.52,3.34,3.34,0,0,1-2.47,1,3.86,3.86,0,0,1-1.75-.42,2.83,2.83,0,0,1-1.27-1.22A4,4,0,0,1,34.91,8.65Zm1.81.09a2.23,2.23,0,0,0,.47,1.52,1.48,1.48,0,0,0,1.17.53,1.46,1.46,0,0,0,1.16-.53A2.24,2.24,0,0,0,40,8.73a2.2,2.2,0,0,0-.47-1.51,1.46,1.46,0,0,0-1.16-.53,1.48,1.48,0,0,0-1.17.53A2.23,2.23,0,0,0,36.72,8.74Z"/><path d="M44.89,12.09H43.12V5.4h1.64v.95a2.87,2.87,0,0,1,.76-.89,1.44,1.44,0,0,1,.77-.21,2.25,2.25,0,0,1,1.16.33L46.9,7.12a1.54,1.54,0,0,0-.83-.29,1,1,0,0,0-.63.21,1.38,1.38,0,0,0-.4.74A10.29,10.29,0,0,0,44.89,10Z"/><path d="M51.28,5.4V6.81H50.07V9.5a5.47,5.47,0,0,0,0,1,.37.37,0,0,0,.15.22.53.53,0,0,0,.3.09,2.45,2.45,0,0,0,.72-.17L51.43,12a3.5,3.5,0,0,1-1.4.27,2.31,2.31,0,0,1-.86-.16,1.29,1.29,0,0,1-.57-.42,1.69,1.69,0,0,1-.25-.69,8.63,8.63,0,0,1-.05-1.25V6.81h-.82V5.4h.82V4.07l1.77-1V5.4Z"/><path d="M52.35,12.53l2,.24a.69.69,0,0,0,.23.49,1.37,1.37,0,0,0,.79.19,2,2,0,0,0,1-.21.83.83,0,0,0,.36-.45,2.89,2.89,0,0,0,.08-.81V11a2.41,2.41,0,0,1-2,1.09A2.48,2.48,0,0,1,52.73,11a3.92,3.92,0,0,1-.62-2.25,3.69,3.69,0,0,1,.81-2.57,2.61,2.61,0,0,1,2-.88,2.46,2.46,0,0,1,2,1.08V5.4h1.66v6a6,6,0,0,1-.2,1.77,2.22,2.22,0,0,1-.54.92,2.53,2.53,0,0,1-.95.52,4.82,4.82,0,0,1-1.49.19,3.86,3.86,0,0,1-2.41-.58,1.84,1.84,0,0,1-.71-1.48A1.62,1.62,0,0,1,52.35,12.53ZM53.93,8.6a2.39,2.39,0,0,0,.41,1.56,1.27,1.27,0,0,0,1,.5,1.4,1.4,0,0,0,1.09-.51,2.2,2.2,0,0,0,.45-1.5,2.33,2.33,0,0,0-.43-1.55,1.36,1.36,0,0,0-1.08-.5,1.29,1.29,0,0,0-1,.49A2.31,2.31,0,0,0,53.93,8.6Z"/><path d="M61.71,7.44l-1.6-.29A2.5,2.5,0,0,1,61,5.71a3.4,3.4,0,0,1,2-.46,4.23,4.23,0,0,1,1.77.28,1.69,1.69,0,0,1,.81.71,3.55,3.55,0,0,1,.24,1.58l0,2.07a8,8,0,0,0,.08,1.3,4.26,4.26,0,0,0,.32.9H64.45c0-.12-.1-.3-.17-.53l-.06-.21a3.19,3.19,0,0,1-1,.67,2.88,2.88,0,0,1-1.1.22,2.3,2.3,0,0,1-1.63-.56,2,2,0,0,1-.33-2.43A1.78,1.78,0,0,1,61,8.57a6,6,0,0,1,1.41-.42,9.62,9.62,0,0,0,1.72-.43V7.54a.89.89,0,0,0-.25-.72,1.49,1.49,0,0,0-.95-.22,1.23,1.23,0,0,0-.74.19A1.32,1.32,0,0,0,61.71,7.44Zm2.37,1.43A8.68,8.68,0,0,1,63,9.14a3.38,3.38,0,0,0-1,.31.75.75,0,0,0-.35.63.9.9,0,0,0,.28.64,1,1,0,0,0,.71.27,1.53,1.53,0,0,0,.91-.32,1.13,1.13,0,0,0,.42-.58,3.29,3.29,0,0,0,.07-.86Z"/><path d="M67.4,12.53l2,.24a.73.73,0,0,0,.23.49,1.41,1.41,0,0,0,.8.19,2,2,0,0,0,1-.21.86.86,0,0,0,.35-.45,2.89,2.89,0,0,0,.08-.81V11a2.4,2.4,0,0,1-2,1.09A2.48,2.48,0,0,1,67.78,11a3.92,3.92,0,0,1-.61-2.25A3.69,3.69,0,0,1,68,6.13a2.61,2.61,0,0,1,2-.88A2.46,2.46,0,0,1,72,6.33V5.4h1.65v6a6,6,0,0,1-.19,1.77,2.24,2.24,0,0,1-.55.92,2.56,2.56,0,0,1-.94.52,4.86,4.86,0,0,1-1.49.19,3.82,3.82,0,0,1-2.41-.58,1.82,1.82,0,0,1-.72-1.48C67.39,12.68,67.4,12.61,67.4,12.53ZM69,8.6a2.45,2.45,0,0,0,.41,1.56,1.3,1.3,0,0,0,1,.5,1.42,1.42,0,0,0,1.1-.51A2.26,2.26,0,0,0,72,8.65a2.39,2.39,0,0,0-.42-1.55,1.39,1.39,0,0,0-1.09-.5,1.32,1.32,0,0,0-1,.49A2.37,2.37,0,0,0,69,8.6Z"/><path d="M79.32,10l1.76.29A2.9,2.9,0,0,1,80,11.73a3.17,3.17,0,0,1-1.84.51,3,3,0,0,1-2.58-1.14,3.85,3.85,0,0,1-.66-2.31,3.66,3.66,0,0,1,.87-2.6A2.85,2.85,0,0,1,78,5.25a3,3,0,0,1,2.36,1,4.36,4.36,0,0,1,.82,3H76.74a1.81,1.81,0,0,0,.43,1.23,1.33,1.33,0,0,0,1,.43,1.09,1.09,0,0,0,.7-.22A1.44,1.44,0,0,0,79.32,10Zm.1-1.79A1.77,1.77,0,0,0,79,7a1.21,1.21,0,0,0-.92-.4,1.24,1.24,0,0,0-1,.42,1.66,1.66,0,0,0-.37,1.15Z"/><path d="M86.38,14.8V2.69h1.41V14.8Z"/><path class="cls-1" d="M93.46,12.09V2.85h3.18A8.4,8.4,0,0,1,98.29,3a3.28,3.28,0,0,1,1.35.66,3.77,3.77,0,0,1,1.09,1.58,6,6,0,0,1,.37,2.2,6.54,6.54,0,0,1-.25,1.86,4.45,4.45,0,0,1-.63,1.35,3.52,3.52,0,0,1-.84.84,3.57,3.57,0,0,1-1.1.46,6.58,6.58,0,0,1-1.48.16ZM94.68,11h2a4.93,4.93,0,0,0,1.43-.17,2.22,2.22,0,0,0,.83-.48,2.89,2.89,0,0,0,.67-1.17,5.46,5.46,0,0,0,.25-1.78,4.27,4.27,0,0,0-.48-2.23,2.37,2.37,0,0,0-1.15-1,4.69,4.69,0,0,0-1.58-.19H94.68Z"/><path class="cls-1" d="M102.64,4.16V2.85h1.13V4.16Zm0,7.93V5.4h1.13v6.69Z"/><path class="cls-1" d="M105.29,12.64l1.1.16a1.1,1.1,0,0,0,.39.75,1.87,1.87,0,0,0,1.15.31,2,2,0,0,0,1.22-.31,1.59,1.59,0,0,0,.58-.89,7.46,7.46,0,0,0,.08-1.45,2.35,2.35,0,0,1-1.85.88,2.55,2.55,0,0,1-2.14-1,3.85,3.85,0,0,1-.75-2.39,4.42,4.42,0,0,1,.34-1.76,2.74,2.74,0,0,1,1-1.25A2.63,2.63,0,0,1,108,5.25a2.41,2.41,0,0,1,2,1V5.4h1v5.78a5.48,5.48,0,0,1-.32,2.21,2.28,2.28,0,0,1-1,1,3.49,3.49,0,0,1-1.69.38,3.23,3.23,0,0,1-1.94-.54A1.84,1.84,0,0,1,105.29,12.64Zm.94-4a2.88,2.88,0,0,0,.52,1.92,1.65,1.65,0,0,0,1.31.61,1.67,1.67,0,0,0,1.31-.6,2.79,2.79,0,0,0,.53-1.89,2.74,2.74,0,0,0-.54-1.85A1.69,1.69,0,0,0,108,6.18a1.63,1.63,0,0,0-1.28.62A2.73,2.73,0,0,0,106.23,8.62Z"/><path class="cls-1" d="M112.68,4.16V2.85h1.13V4.16Zm0,7.93V5.4h1.13v6.69Z"/><path class="cls-1" d="M118,11.07l.17,1a4.06,4.06,0,0,1-.86.1,1.9,1.9,0,0,1-.95-.19,1.07,1.07,0,0,1-.48-.51,3.89,3.89,0,0,1-.14-1.34V6.28h-.83V5.4h.83V3.74l1.13-.68V5.4H118v.88h-1.13v3.91a2.06,2.06,0,0,0,.05.62.43.43,0,0,0,.2.22.7.7,0,0,0,.39.09A3.67,3.67,0,0,0,118,11.07Z"/><path class="cls-1" d="M123.49,11.26a4.35,4.35,0,0,1-1.21.76,3.69,3.69,0,0,1-1.25.22,2.44,2.44,0,0,1-1.7-.54,1.8,1.8,0,0,1-.59-1.38,1.82,1.82,0,0,1,.22-.9,1.94,1.94,0,0,1,.59-.65,2.72,2.72,0,0,1,.81-.37,9.34,9.34,0,0,1,1-.17,10.38,10.38,0,0,0,2-.39c0-.16,0-.25,0-.3a1.26,1.26,0,0,0-.32-1,1.88,1.88,0,0,0-1.29-.39,2,2,0,0,0-1.18.28,1.69,1.69,0,0,0-.57,1l-1.11-.16a2.72,2.72,0,0,1,.5-1.14,2.17,2.17,0,0,1,1-.68A4.46,4.46,0,0,1,122,5.25a3.86,3.86,0,0,1,1.39.2,1.83,1.83,0,0,1,.79.5,1.71,1.71,0,0,1,.35.77,6.18,6.18,0,0,1,.06,1V9.28a15.83,15.83,0,0,0,.07,2,2.71,2.71,0,0,0,.29.81h-1.18A2.3,2.3,0,0,1,123.49,11.26Zm-.1-2.53a8.32,8.32,0,0,1-1.85.43,4.38,4.38,0,0,0-1,.22,1,1,0,0,0-.44.37.93.93,0,0,0-.16.54,1,1,0,0,0,.34.76,1.49,1.49,0,0,0,1,.3,2.35,2.35,0,0,0,1.16-.29,1.76,1.76,0,0,0,.75-.78,2.82,2.82,0,0,0,.18-1.14Z"/><path class="cls-1" d="M126.27,12.09V2.85h1.14v9.24Z"/><path class="cls-1" d="M139.48,8.85l1.22.31a4.08,4.08,0,0,1-1.38,2.29,3.8,3.8,0,0,1-2.44.79,4.33,4.33,0,0,1-2.43-.61A3.74,3.74,0,0,1,133,9.87a6.15,6.15,0,0,1-.49-2.47,5.44,5.44,0,0,1,.55-2.52,3.8,3.8,0,0,1,1.57-1.63,4.6,4.6,0,0,1,2.24-.56,3.8,3.8,0,0,1,2.33.71,3.61,3.61,0,0,1,1.31,2l-1.2.29a2.84,2.84,0,0,0-.93-1.47,2.47,2.47,0,0,0-1.54-.46,3,3,0,0,0-1.78.51,2.72,2.72,0,0,0-1,1.37,5.56,5.56,0,0,0-.29,1.77,5.63,5.63,0,0,0,.34,2.06,2.56,2.56,0,0,0,1.07,1.31,3,3,0,0,0,1.57.44,2.63,2.63,0,0,0,1.74-.6A3,3,0,0,0,139.48,8.85Z"/><path class="cls-1" d="M141.64,8.74a3.43,3.43,0,0,1,1-2.75,3.11,3.11,0,0,1,2.11-.74,3,3,0,0,1,2.25.9,3.4,3.4,0,0,1,.88,2.5,4.41,4.41,0,0,1-.39,2,2.78,2.78,0,0,1-1.13,1.15,3.29,3.29,0,0,1-1.61.41,3,3,0,0,1-2.27-.9A3.6,3.6,0,0,1,141.64,8.74Zm1.17,0a2.83,2.83,0,0,0,.56,1.93,1.8,1.8,0,0,0,1.41.63,1.77,1.77,0,0,0,1.4-.64,2.94,2.94,0,0,0,.56-2,2.81,2.81,0,0,0-.56-1.88,1.86,1.86,0,0,0-2.81,0A2.79,2.79,0,0,0,142.81,8.74Z"/><path class="cls-1" d="M149.24,12.09V5.4h1v.95a2.39,2.39,0,0,1,2.13-1.1,2.89,2.89,0,0,1,1.11.21,1.83,1.83,0,0,1,.76.57,2.44,2.44,0,0,1,.35.84,6.82,6.82,0,0,1,.06,1.1v4.12h-1.13V8a3,3,0,0,0-.13-1,1.14,1.14,0,0,0-.47-.55,1.57,1.57,0,0,0-.79-.2,1.81,1.81,0,0,0-1.25.46,2.26,2.26,0,0,0-.53,1.74v3.66Z"/><path class="cls-1" d="M160.78,9.63l1.11.15a2.86,2.86,0,0,1-.93,1.8,2.72,2.72,0,0,1-1.85.66,2.87,2.87,0,0,1-2.21-.9,3.63,3.63,0,0,1-.84-2.57,4.63,4.63,0,0,1,.36-1.9,2.52,2.52,0,0,1,1.1-1.22,3.24,3.24,0,0,1,1.59-.4,2.79,2.79,0,0,1,1.79.55,2.48,2.48,0,0,1,.88,1.56l-1.1.17a1.75,1.75,0,0,0-.56-1,1.39,1.39,0,0,0-1-.34,1.78,1.78,0,0,0-1.4.61,3,3,0,0,0-.53,1.94,3,3,0,0,0,.52,2,1.66,1.66,0,0,0,1.34.61,1.57,1.57,0,0,0,1.12-.41A2,2,0,0,0,160.78,9.63Z"/><path class="cls-1" d="M162.87,4.16V2.85H164V4.16Zm0,7.93V5.4H164v6.69Z"/><path class="cls-1" d="M170.31,9.93l1.17.15a2.9,2.9,0,0,1-1,1.59,3.46,3.46,0,0,1-4.24-.34,3.5,3.5,0,0,1-.86-2.53,3.68,3.68,0,0,1,.87-2.62,2.94,2.94,0,0,1,2.25-.93,2.83,2.83,0,0,1,2.19.91,3.61,3.61,0,0,1,.85,2.57V9h-5a2.59,2.59,0,0,0,.62,1.69,1.86,1.86,0,0,0,1.4.58,1.81,1.81,0,0,0,1.07-.32A2.28,2.28,0,0,0,170.31,9.93ZM166.58,8.1h3.74a2.24,2.24,0,0,0-.43-1.27,1.75,1.75,0,0,0-1.4-.65,1.8,1.8,0,0,0-1.32.52A2.1,2.1,0,0,0,166.58,8.1Z"/><path class="cls-1" d="M172.89,12.09V5.4h1v1a2.81,2.81,0,0,1,.72-.94,1.26,1.26,0,0,1,.73-.22,2.21,2.21,0,0,1,1.16.36l-.39,1a1.65,1.65,0,0,0-.83-.24,1.08,1.08,0,0,0-.67.22,1.19,1.19,0,0,0-.42.62A4.25,4.25,0,0,0,174,8.58v3.51Z"/><path class="cls-1" d="M177,12.64l1.1.16a1.09,1.09,0,0,0,.38.75,1.92,1.92,0,0,0,1.16.31,2,2,0,0,0,1.21-.31,1.54,1.54,0,0,0,.58-.89,6.71,6.71,0,0,0,.08-1.45,2.33,2.33,0,0,1-1.85.88,2.52,2.52,0,0,1-2.13-1,3.8,3.8,0,0,1-.76-2.39,4.42,4.42,0,0,1,.35-1.76,2.73,2.73,0,0,1,1-1.25,2.69,2.69,0,0,1,1.55-.44,2.38,2.38,0,0,1,2,1V5.4h1v5.78a5.48,5.48,0,0,1-.32,2.21,2.28,2.28,0,0,1-1,1,3.5,3.5,0,0,1-1.7.38,3.2,3.2,0,0,1-1.93-.54A1.82,1.82,0,0,1,177,12.64Zm.94-4a2.88,2.88,0,0,0,.52,1.92,1.64,1.64,0,0,0,1.31.61,1.67,1.67,0,0,0,1.31-.6,2.84,2.84,0,0,0,.53-1.89,2.69,2.69,0,0,0-.55-1.85,1.67,1.67,0,0,0-1.31-.63,1.63,1.63,0,0,0-1.28.62A2.67,2.67,0,0,0,177.93,8.62Z"/><path class="cls-1" d="M189,9.93l1.17.15a2.85,2.85,0,0,1-1,1.59,3.46,3.46,0,0,1-4.24-.34A3.54,3.54,0,0,1,184,8.8a3.68,3.68,0,0,1,.87-2.62,3,3,0,0,1,2.26-.93,2.86,2.86,0,0,1,2.19.91,3.61,3.61,0,0,1,.85,2.57c0,.07,0,.17,0,.3h-5a2.6,2.6,0,0,0,.63,1.69,1.85,1.85,0,0,0,1.4.58,1.78,1.78,0,0,0,1.06-.32A2.2,2.2,0,0,0,189,9.93ZM185.23,8.1H189a2.24,2.24,0,0,0-.43-1.27,1.75,1.75,0,0,0-1.4-.65,1.78,1.78,0,0,0-1.31.52A2,2,0,0,0,185.23,8.1Z"/><path class="cls-2" d="M17.77,14.21v.15l0,.1a.46.46,0,0,1-.36.3H.36A.46.46,0,0,1,0,14.45V14.3A.46.46,0,0,1,.5,14h2V3.77a2,2,0,0,1,0-.25,1.73,1.73,0,0,1,1.3-1.44L4.11,2c0-.19,0-.38,0-.56A1.66,1.66,0,0,1,5.39.05l.3,0h7.89l.08,0a1.35,1.35,0,0,1,.61.18,1.72,1.72,0,0,1,.9,1.58V14h2.22A.38.38,0,0,1,17.77,14.21ZM14.49,14V1.77a.93.93,0,0,0-1-1H5.88a.94.94,0,0,0-1,1V14ZM4.17,14V2.78a.92.92,0,0,0-.85.93V14h.85Z"/><path class="cls-2" d="M9,9.2c0,.32,0,.65,0,1a1,1,0,0,1-1,1,4.56,4.56,0,0,1-.64,0A1.12,1.12,0,0,1,6.33,10c0-.51,0-1,0-1.53a1,1,0,0,1,.59-1,.78.78,0,0,1,.33-.09,6.32,6.32,0,0,1,.87,0A1,1,0,0,1,9,8.4v.8Zm-.67,0h0V8.42a.27.27,0,0,0-.3-.3H7.43a.28.28,0,0,0-.3.31c0,.5,0,1,0,1.52a.28.28,0,0,0,.31.31H8c.23,0,.34-.1.34-.34Z"/><path class="cls-2" d="M9,4.1c0,.32,0,.65,0,1A1,1,0,0,1,8,6q-.32,0-.63,0a1.05,1.05,0,0,1-1-.91,1,1,0,0,1,0-.25c0-.51,0-1,0-1.52a1,1,0,0,1,.5-.91.82.82,0,0,1,.39-.13,4.5,4.5,0,0,1,.9,0,1,1,0,0,1,.85,1V4.1Zm-.67.06h0V3.39A.28.28,0,0,0,8,3.08H7.45a.29.29,0,0,0-.32.33c0,.5,0,1,0,1.49a.29.29,0,0,0,.31.33H8a.3.3,0,0,0,.34-.34Z"/><path class="cls-2" d="M12.89,4.17c0,.28,0,.56,0,.84a1,1,0,0,1-1,1h-.6a1.07,1.07,0,0,1-1-1q0-.86,0-1.71a1,1,0,0,1,1.05-1,5.12,5.12,0,0,1,.68,0,1.07,1.07,0,0,1,.9,1c0,.3,0,.6,0,.9Zm-.73,0V3.41a.29.29,0,0,0-.32-.33h-.53a.28.28,0,0,0-.31.31q0,.76,0,1.53a.28.28,0,0,0,.31.31h.51c.23,0,.34-.11.34-.34Z"/><path class="cls-2" d="M12.89,9.27c0,.28,0,.56,0,.83a1,1,0,0,1-1.07,1c-.2,0-.41,0-.61,0a1.08,1.08,0,0,1-1-1c0-.57,0-1.13,0-1.7a1,1,0,0,1,1.06-1,4.68,4.68,0,0,1,.65,0,1.06,1.06,0,0,1,.92,1c0,.3,0,.6,0,.9Zm-.73-.07V8.43a.28.28,0,0,0-.31-.31h-.54a.27.27,0,0,0-.31.3c0,.51,0,1,0,1.54a.27.27,0,0,0,.31.3h.51a.3.3,0,0,0,.34-.34Z"/></g></g></svg>